<svg width="135" height="135" viewBox="0 0 135 135" fill="none" xmlns="http://www.w3.org/2000/svg">
<path d="M24.3557 82.3068C23.435 83.2929 24.5528 84.082 25.0793 83.4246C26.5258 81.5832 28.8431 81.4347 29.9454 82.5039C30.4125 82.9568 30.9315 82.701 30.7999 82.109C30.4057 80.7975 27.1833 79.2814 24.3557 82.3068Z" fill="#9B7EBD"/>
<path d="M24.29 77.638C23.1715 75.7966 21.2647 72.772 19.2275 73.2316C12.9149 74.6127 6.99652 83.819 8.57467 83.6219C9.16597 83.5544 11.4022 80.1369 14.2298 77.5719C15.9396 76.0599 18.373 74.8105 19.4908 74.8759C20.6086 75.0076 22.7787 77.5084 23.7649 78.8875C24.6842 80.2685 25.4071 79.4794 24.29 77.638Z" fill="#9B7EBD"/>
<path d="M19.5549 65.6694C21.725 66.9188 22.5141 66.7217 24.5499 65.4068C28.0349 63.1705 33.1177 58.5812 33.8879 57.5154C34.9692 56.025 34.1552 46.5993 32.6411 44.955C31.1946 43.4423 21.1992 44.6917 19.8161 45.875C18.3035 47.1251 12.4512 57.9751 13.1087 59.9481C13.6352 61.3953 17.0561 64.2229 19.5549 65.6694ZM30.5372 46.5993C32.3124 47.2567 31.3917 50.2159 29.6819 49.6246C27.7751 49.0327 28.5641 45.8102 30.5372 46.5993Z" fill="#9B7EBD"/>
<path d="M39.8743 78.2322C38.1201 78.3797 36.4924 79.2051 35.337 80.5333C34.8111 81.1907 35.2695 81.9143 35.9289 81.3885C39.1507 78.8235 41.5186 79.0868 44.0829 81.2535C44.6088 81.7139 45.1474 81.051 44.6088 80.2673C44.0754 79.5339 43.3542 78.9578 42.521 78.5997C41.6878 78.2415 40.7735 78.1146 39.8743 78.2322Z" fill="#9B7EBD"/>
<path d="M24.8159 89.7374C22.0538 88.3563 17.9768 86.3178 15.7412 87.2399C13.7027 88.0944 11.6642 98.0244 12.8482 97.8927C13.1762 97.8927 13.3078 97.7611 13.374 97.4324C13.5711 95.6571 15.3463 88.818 16.4641 88.4238C18.0423 87.8973 23.6191 90.2963 25.3417 91.1198C26.0552 91.4627 26.3927 90.461 24.8159 89.7374Z" fill="#9B7EBD"/>
<path d="M40.7294 64.8149C39.4138 63.9597 33.7586 62.8419 22.4483 69.4178C21.9862 69.1569 21.5022 68.937 21.0018 68.7603C16.9903 67.5109 10.6743 73.2315 7.65233 76.7827C1.95398 83.2789 1.46663 86.7207 9.16433 90.7234C7.7178 95.7859 6.53183 99.9305 8.50688 102.429C9.5592 103.744 13.0449 104.797 15.2144 104.533C16.5299 104.402 16.2012 103.218 15.0834 103.152C12.4509 103.017 9.7563 101.705 9.62535 101.442C7.45523 99.7327 12.65 83.9505 15.2144 83.3585C16.6616 82.8982 21.6593 85.0683 28.6293 88.421C29.6155 88.8807 31.2618 88.421 27.577 86.448C20.4753 82.6336 16.2667 80.99 14.4914 81.5165C12.4529 82.1739 10.4799 86.7106 9.62535 89.0764C7.19198 87.7615 5.4822 86.3805 4.89023 84.9995C4.49603 84.1442 5.6793 81.3167 8.83628 77.7655C12.65 73.4914 15.5438 71.3213 17.911 70.5983C19.3575 70.138 21.6593 69.6115 27.1173 75.3328C29.4184 77.7628 31.523 81.185 33.4954 84.7362C33.8248 85.3282 35.2052 85.3282 34.6793 84.2104C31.7201 78.0976 27.4454 72.7718 23.8949 70.3385C34.4161 64.4201 38.888 65.735 39.677 66.2615C42.242 67.9712 47.042 80.9913 47.5685 82.2407C47.831 82.8982 49.2121 83.3585 48.9488 82.3082C48.0281 78.8873 42.3075 65.8666 40.7294 64.8149Z" fill="#9B7EBD"/>
<path d="M126.282 92.0389C126.15 92.4331 125.756 94.1429 125.625 94.5364C124.236 91.8956 122.487 89.4609 120.427 87.3024C120.077 86.9007 119.621 86.6048 119.112 86.4479C119.441 85.725 120.164 83.7519 119.967 83.0945C119.77 82.568 118.981 82.568 118.52 83.6865C117.928 85.0668 117.139 87.6318 112.47 92.9583C107.34 98.745 99.1875 102.493 92.9403 102.559C91.888 102.559 92.8728 103.94 93.9265 103.94C98.069 103.872 102.541 102.362 106.617 99.7967C107.274 102.69 110.694 107.096 112.864 108.609C109.478 110.449 105.774 111.632 101.948 112.094C100.963 112.18 102.079 113.343 103.065 113.343C113.477 112.371 124.951 104.989 127.002 94.7335C127.597 92.1044 126.545 91.2498 126.282 92.0389ZM124.375 97.497C123.029 101.608 118.785 105.782 115.037 107.426C112.933 108.347 109.382 102.692 108.33 100.193C108.199 99.8818 108.18 99.535 108.276 99.2114C108.371 98.8878 108.576 98.6073 108.855 98.4177C112.404 95.876 115.438 92.6853 117.799 89.0142C117.883 88.8799 117.996 88.7661 118.131 88.6811C118.265 88.5962 118.416 88.5423 118.574 88.5234C118.731 88.5044 118.891 88.5209 119.041 88.5716C119.192 88.6223 119.329 88.706 119.443 88.8165C121.284 90.6579 123.586 94.7349 124.046 95.3268C124.769 95.9175 124.588 96.8442 124.375 97.497Z" fill="#9B7EBD"/>
<path d="M108.461 108.874C107.425 107.87 105.345 104.643 104.384 102.955C104.348 102.878 104.297 102.81 104.234 102.755C104.17 102.699 104.095 102.658 104.015 102.633C103.934 102.608 103.849 102.601 103.766 102.611C103.682 102.621 103.601 102.649 103.529 102.692C102.148 103.218 106.423 108.939 108.132 110.057C108.593 110.32 108.996 109.391 108.461 108.874Z" fill="#9B7EBD"/>
<path d="M37.3758 69.4841C39.1598 69.8391 40.1642 72.5925 41.1241 74.6141C41.3138 75.0123 42.1109 74.8119 42.0448 74.3515C41.6499 72.3785 40.4005 70.5371 39.5473 69.289C37.772 66.859 32.8398 68.7632 30.8668 69.881C29.2232 70.8672 28.8155 72.0903 30.2755 71.3937C31.7085 70.7065 35.1497 69.0399 37.3758 69.4841Z" fill="#9B7EBD"/>
<path d="M116.286 96.7079C115.156 96.5288 114.01 96.4626 112.867 96.5101C112.144 96.5776 112.078 97.2999 112.732 97.497C113.73 97.7135 114.74 97.8673 115.757 97.9573C115.757 98.2362 115.83 98.5103 115.968 98.7525C116.106 98.9947 116.305 99.1966 116.546 99.3383C116.06 100.608 115.643 101.903 115.297 103.218C115.034 104.533 116.086 104.599 116.546 103.612C117.204 101.968 117.335 101.245 117.927 99.4693C118.209 99.4119 118.472 99.2847 118.692 99.0993C118.913 98.9139 119.083 98.6762 119.187 98.4081C119.292 98.1399 119.328 97.8497 119.291 97.5642C119.255 97.2786 119.148 97.0067 118.979 96.7733C118.457 95.9174 116.747 95.721 116.286 96.7079Z" fill="#9B7EBD"/>
<path d="M95.0459 35.1572C95.9012 32.79 94.1907 29.1734 90.7718 27.7923C90.7718 24.8331 86.6287 16.8101 78.0818 20.9532C75.7139 14.5745 67.6916 11.4836 63.6146 16.4159C55.6576 10.1687 48.427 13.5228 46.0571 21.3481C37.5083 16.3531 28.1021 23.4521 30.4066 30.686C25.0788 32.7245 24.6184 40.1549 29.0248 42.128C30.9972 43.048 34.3513 42.1955 35.7323 37.7216C40.5984 40.5491 52.8955 42.7841 58.7498 33.4475C63.7448 36.0125 71.7044 34.2365 75.3866 31.3435C79.6613 35.6831 84.9878 33.976 87.9463 32.4613C86.6287 37.2599 94.323 37.1296 95.0459 35.1572Z" fill="#9B7EBD"/>
<path d="M59.2732 29.6999C57.4979 36.0787 50.725 39.0379 45.6611 39.1034C40.9922 39.1034 36.1922 37.4597 33.233 33.5798C32.4439 32.5275 31.6549 34.8947 34.2847 36.9332C33.952 37.8051 33.5335 38.6417 33.0352 39.4307C32.3778 40.4831 34.3508 40.2205 35.7319 37.9181C44.2119 43.2965 54.6143 40.6181 58.9445 34.433C63.4163 36.5377 71.3732 35.7486 74.7928 32.2629C78.1462 35.1566 83.4071 35.8802 87.1547 33.5785C87.418 34.2359 88.1416 35.617 89.0623 35.617C89.7197 35.617 88.2732 34.7624 88.6019 32.0658C88.799 30.6193 88.0754 30.0273 87.1547 31.3429C85.1824 34.2359 78.8698 33.7729 75.9106 31.2079C77.2255 29.2349 76.3703 27.5906 75.9781 28.3796C73.4806 33.1148 66.1143 35.1533 59.8017 32.9831C60.7197 30.028 59.6026 28.5815 59.2732 29.6999Z" fill="#2B0034"/>
<path d="M62.2986 77.5717C74.1347 77.7688 79.7899 72.9027 80.2536 69.1544C80.7801 65.2752 79.991 62.3815 76.8347 61.6579C72.3628 60.6062 69.0088 64.9458 63.4198 64.9458C58.8824 64.9458 52.8324 62.5158 49.9387 64.1567C46.7824 65.9326 48.0318 70.1413 48.7554 71.5223C50.2647 74.3499 54.0784 77.44 62.2986 77.5717ZM49.8698 67.7079C49.7382 65.801 51.1192 65.0119 52.7629 65.4068C60.6543 67.0504 65.4529 67.7079 72.2933 64.1567C76.5681 61.9211 78.0808 64.0892 78.2117 65.3407C77.2255 66.9188 73.2802 68.2999 75.0554 68.8257C75.5158 68.9607 77.4888 68.5631 78.8037 67.4453C78.2779 72.4403 70.9784 75.5993 64.0077 75.7964C53.0261 76.1251 50.0669 71.1274 49.8698 69.6809C52.1054 70.6016 53.6181 70.7987 54.2762 69.9442C54.802 69.286 51.8401 69.0228 49.8698 67.7079Z" fill="#2B0034"/>
<path d="M18.9002 54.359C19.6238 55.9372 21.0703 56.0688 22.3197 56.1998C22.7742 57.7446 23.3229 59.2601 23.9627 60.7378C23.5186 60.8034 23.0653 60.7598 22.6419 60.6107C22.2185 60.4617 21.8378 60.2118 21.5327 59.8826C21.2694 59.6193 20.7375 59.6166 20.612 59.8826C20.3352 60.4685 21.6643 62.5792 24.4257 61.9211C24.689 62.5792 24.7544 62.9072 25.0177 63.0389C25.5435 63.1064 26.2016 62.6447 25.7413 61.3952C27.3849 60.4091 28.3063 58.3699 27.2533 56.6601C26.3252 55.1474 24.8159 55.0799 23.3687 55.0165C23.3012 54.8849 22.3832 51.9257 22.0538 50.874C24.0923 50.3475 24.2239 51.8602 25.1446 51.3998C25.4072 51.2682 25.4821 51.0002 25.2796 50.6762C24.5182 49.4747 22.8496 49.3613 21.6629 49.6901C21.3997 49.1642 21.2026 48.5723 20.6106 48.5723C20.2819 48.5723 19.9532 48.8348 20.0841 49.1642C20.1707 49.5301 20.3034 49.8835 20.479 50.2159C19.0291 51.0711 18.1084 52.7174 18.9002 54.359ZM26.068 57.3837C26.328 57.855 26.391 58.41 26.2432 58.9275C26.0953 59.4451 25.7487 59.883 25.2789 60.1458C24.8186 58.8964 24.1604 57.4458 23.7008 56.2659C24.5526 56.3975 25.5388 56.5292 26.0653 57.3837H26.068ZM20.807 51.4653C21.1358 52.4522 21.5306 53.57 21.8594 54.8187C21.4842 54.8368 21.1116 54.7475 20.7854 54.5612C20.4593 54.3749 20.193 54.0994 20.018 53.7671C19.8443 53.3537 19.8284 52.8909 19.9734 52.4666C20.1183 52.0423 20.414 51.686 20.8043 51.4653H20.807Z" fill="#2B0034"/>
<path d="M30.5372 46.5992C28.4987 45.8101 27.7751 49.0325 29.682 49.6245C31.3918 50.2158 32.3125 47.3228 30.5372 46.5992Z" fill="#2B0034"/>
<path d="M122.27 81.123C122.099 80.981 121.967 80.7978 121.887 80.5907C121.806 80.3835 121.78 80.1592 121.81 79.939C122.929 72.4425 116.549 60.8689 107.475 64.4201C107.163 64.1165 106.833 63.831 106.488 63.5649C106.893 63.0779 107.205 62.5208 107.409 61.9212C112.012 62.4471 111.091 55.3454 107.804 51.2029C110.5 49.0983 110.565 42.0621 106.817 39.3C107.869 32.9219 103.2 24.7017 95.5721 24.1759C94.8492 17.2713 86.7607 12.142 79.7245 14.1144C72.0295 6.15814 48.6205 2.40919 40.532 14.3776C32.6412 11.8126 21.3302 17.6655 21.0677 27.0035C17.8713 28.9544 15.418 31.9168 14.0969 35.4207C11.8613 41.0759 14.1091 48.0075 15.1493 47.5201C15.5489 47.3331 15.478 46.9281 15.3464 46.2707C14.353 42.9599 14.4566 39.4167 15.6417 36.1696C16.8268 32.9225 19.0298 30.1455 21.9222 28.2529C22.1298 28.098 22.3018 27.9005 22.4266 27.6736C22.5514 27.4466 22.6262 27.1956 22.6458 26.9373C22.8105 17.9241 36.7837 11.8133 43.0983 17.7317C43.8874 18.4546 44.3477 16.6794 42.1121 15.0351C51.4494 3.65861 71.9667 9.05119 78.8713 15.0351C79.1134 15.2405 79.3988 15.3886 79.7062 15.4683C80.0136 15.548 80.3351 15.5573 80.6465 15.4954C86.762 14.1144 94.0615 19.3753 93.9298 24.8988C93.9379 25.1016 94.0133 25.2958 94.1443 25.4507C94.2753 25.6057 94.4542 25.7124 94.6528 25.7541C103.597 26.7402 105.437 33.7103 105.109 39.1683C105.09 39.4761 105.161 39.7826 105.313 40.0509C105.465 40.3193 105.691 40.5381 105.964 40.681C108.596 42.5879 108.331 48.6379 106.884 50.0844C94.127 35.4207 94.9822 36.2098 69.5988 40.0269C65.7851 40.6189 66.9663 43.1832 64.4688 43.7097C61.6406 44.3017 61.0587 44.1478 60.194 43.7772C58.2419 42.9375 59.1424 40.818 54.6044 41.2797C50.3957 41.7401 34.3544 42.3321 30.9969 44.436C31.5355 44.4902 32.0538 44.6706 32.5096 44.9625C33.8765 46.3294 34.7081 53.9441 34.0877 56.7987C34.0188 57.2935 33.7594 57.7418 33.3648 58.0481C37.1786 64.493 53.9469 62.4538 56.4458 56.4699C56.5133 58.9033 58.5504 60.8757 61.3118 61.336C64.863 61.928 68.6497 59.5655 68.4142 58.1142C68.3392 57.6552 67.9538 57.4561 67.2964 58.0467C65.455 59.691 61.9693 59.8881 59.7998 58.6387C58.221 57.718 57.8268 55.6795 58.7475 53.0497C59.6021 50.6818 62.2325 46.8019 66.7699 49.7611C68.94 51.1422 70.2549 55.4163 73.5428 57.5236C77.2256 59.8908 85.4458 58.5759 88.9328 56.9978C91.892 55.6822 93.076 46.6075 93.076 46.6075C97.6133 47.7915 99.7173 46.54 102.348 48.7115C106.951 52.4604 108.397 58.773 105.242 62.5213C92.5515 52.6575 84.924 60.9432 91.4317 72.2535C86.9598 75.6075 84.5271 79.8135 83.7367 84.3535C74.9907 88.4305 62.1677 89.3485 53.1592 86.4575C43.427 79.9471 32.5109 86.0626 27.7117 94.22C27.5553 94.4277 27.3394 94.5829 27.0928 94.6651C26.8462 94.7473 26.5804 94.7526 26.3306 94.6804C21.5962 93.628 18.7031 95.5349 17.4537 98.3625C16.8683 99.8505 16.6875 101.467 16.9297 103.048C17.1719 104.628 17.8285 106.116 18.8327 107.361C17.912 110.451 14.0976 116.567 12.7827 119.789C11.9275 121.827 13.7034 121.499 14.8212 119.526C16.9494 115.963 18.8597 112.273 20.5418 108.479C29.0252 113.148 47.1078 122.025 58.0239 120.447C54.9992 126.563 53.5527 128.732 55.2618 128.21C56.9709 127.687 60.786 119.2 62.6274 114.598C66.3757 105.523 67.0331 96.4482 57.2348 89.0826C66.5073 90.332 74.6613 89.8717 83.5389 86.255C82.4859 101.708 99.0578 120.581 114.708 120.187C136.013 119.592 135.62 94.6034 122.27 81.123ZM43.4912 57.9759C42.4388 58.173 41.321 57.1868 37.1124 53.1753C35.5343 51.6633 37.3757 50.9397 39.4142 52.7811C43.6228 56.5293 44.3477 57.8476 43.4912 57.9759ZM47.5027 56.069C45.3326 54.096 40.532 49.6902 38.7567 47.7172C36.9815 45.7442 38.8917 45.6787 40.7297 47.2569C43.0308 49.2954 46.7136 52.5833 48.8837 54.8844C50.659 56.8581 50.0015 58.4362 47.5027 56.069ZM45.7929 47.3885C43.886 45.5471 44.8067 44.5609 46.6475 46.0074C48.4889 47.5201 52.2371 50.0844 52.4349 51.992C52.6327 53.8995 47.6998 49.2954 45.7929 47.3885ZM77.4902 54.4247C76.0511 54.7845 72.558 51.2029 71.3747 49.8873C70.454 48.835 70.454 46.5339 72.558 48.5063C76.7653 52.3207 78.9435 54.0609 77.4902 54.4247ZM85.1177 53.2414C84.2632 53.4385 83.6057 53.1064 80.8436 51.0051C78.6032 49.2978 76.4522 47.476 74.3994 45.5471C72.6242 43.7718 73.4787 42.2598 74.7943 43.3115C85.6429 52.0575 85.9716 53.0443 85.1177 53.2414ZM86.8937 48.9673C85.381 48.7695 82.5534 46.2052 80.7127 44.6925C78.9368 43.1799 79.3971 41.3385 81.4356 43.0482C83.4741 44.758 89.2595 49.2299 86.8923 48.9673H86.8937ZM57.5649 91.5126C53.6195 94.3401 51.1207 98.812 52.3674 99.0726C53.6141 99.3331 55.5899 95.061 59.0094 92.8254C66.4398 100.385 63.349 109.265 58.9419 118.668C50.3276 120.51 35.7293 115.512 21.1304 106.766C19.4868 105.779 17.6454 102.163 18.961 99.0037C21.3275 93.3486 27.2459 98.5441 29.1535 95.4532C32.2436 90.2557 39.938 83.748 47.6971 85.9182C43.8833 87.8905 39.8063 94.0722 42.3707 93.6773C43.423 93.5457 45.2644 89.6664 49.8017 86.6411C52.6158 87.8718 55.2316 89.5136 57.5636 91.5126H57.5649ZM110.172 118.211C103.597 116.501 95.508 111.24 88.8005 100.851C87.5119 98.582 86.5384 96.1486 85.9068 93.6172C84.6574 88.7512 84.9206 84.2793 86.4988 81.123C89.3925 81.0555 92.6143 83.5563 93.535 84.3454C94.4557 85.1345 95.1138 83.8851 94.5218 83.1615C93.4034 81.7804 89.7212 79.8735 87.4195 79.5448C88.8667 76.454 90.9706 74.2184 92.7459 73.8235C94.6528 73.4293 97.3494 75.27 99.9137 76.9805C100.9 77.6379 101.343 76.209 100.572 75.4023C99.1544 73.9214 95.0477 71.785 93.0118 71.6534C91.4296 69.3523 88.1417 60.4126 95.3777 60.2776C98.9944 60.2776 103.927 63.0397 110.436 69.4185C110.766 69.7472 111.423 69.486 111.358 69.0236C111.226 67.9058 110.305 66.8541 108.86 65.7357C117.08 63.8949 120.434 73.8863 120.303 80.2691C120.288 80.68 120.356 81.0896 120.503 81.4737C120.65 81.8578 120.872 82.2084 121.157 82.5047C139.76 101.862 127.597 122.551 110.171 118.211H110.172Z" fill="#2B0034"/>
</svg>
