<svg width="190" height="200" viewBox="0 0 190 200" fill="none" xmlns="http://www.w3.org/2000/svg">
<path d="M181.627 172.509C174.768 157.305 157.071 156.864 146.15 158.694C126.37 162.019 123.256 174.181 123.309 178.379C123.309 181.778 126.465 187.259 134.177 188.311C134.993 188.969 135.955 189.422 136.982 189.632C138.008 189.843 139.07 189.805 140.079 189.521C142.184 191.173 145.645 191.541 146.771 189.963C152.379 192.709 152.652 188.511 152.652 188.511C153.95 188.582 155.251 188.554 156.545 188.427C154.704 190.352 154.662 193.109 159.154 193.635C171.843 195.108 188.329 187.364 181.627 172.509Z" fill="#9B7EBD"/>
<path d="M67.0305 41.3939C57.2353 43.8243 55.4572 49.3374 57.2774 53.2723C59.4447 57.8279 73.9955 59.4166 83.1384 55.1766C100.298 47.3068 84.0327 37.196 67.0305 41.3939Z" fill="#9B7EBD"/>
<path d="M156.061 115.158C156.384 115.158 156.695 115.038 156.934 114.821C163.763 108.245 166.067 105.604 161.848 102.427C158.996 100.575 160.796 98.2185 165.404 92.232C166.456 90.9695 164.467 89.2756 163.426 90.5907C153.336 102.732 159.891 103.216 161.322 105.499C161.322 106.12 160.701 108.014 155.167 112.927C154.98 113.106 154.85 113.336 154.795 113.589C154.74 113.842 154.763 114.105 154.859 114.345C154.955 114.585 155.121 114.791 155.335 114.936C155.55 115.081 155.802 115.158 156.061 115.158Z" fill="#2A0034"/>
<path d="M145.897 91.2221C145.644 92.1374 138.974 98.7762 141.93 100.344C142.089 100.405 142.257 100.434 142.427 100.429C142.596 100.424 142.763 100.386 142.917 100.317C143.072 100.247 143.211 100.148 143.327 100.024C143.443 99.9008 143.533 99.7555 143.593 99.5969C144.353 97.6307 145.466 95.8195 146.875 94.2521C150.032 90.6013 148.254 88.9916 143.13 86.7716C145.813 85.0356 149.821 83.8152 150.337 80.2169C150.377 79.8779 150.281 79.5367 150.07 79.2683C149.859 79 149.55 78.8265 149.211 78.7861C148.872 78.7456 148.531 78.8415 148.262 79.0526C147.994 79.2637 147.821 79.5728 147.78 79.9118C147.675 83.005 136.943 84.8357 140.636 88.4866C143.908 89.9174 145.686 90.8749 145.897 91.2221Z" fill="#2A0034"/>
<path d="M126.012 61.7944C130.484 60.5213 132.504 57.9121 130.757 54.0193C140.079 51.0839 130.357 45.0237 137.196 43.7401C137.359 43.6973 137.512 43.6228 137.646 43.5208C137.781 43.4188 137.894 43.2914 137.979 43.1459C138.064 43.0003 138.119 42.8394 138.142 42.6724C138.165 42.5054 138.154 42.3355 138.112 42.1725C138.069 42.0094 137.994 41.8564 137.892 41.7222C137.79 41.588 137.663 41.4751 137.517 41.3901C137.372 41.3051 137.211 41.2496 137.044 41.2268C136.877 41.204 136.707 41.2143 136.544 41.2571C131.031 42.709 131.809 45.9706 132.272 47.9275C132.535 48.9796 132.672 49.7477 132.346 50.2632C132.02 50.7788 131.199 51.3153 128.769 51.8624C128.586 51.9001 128.413 51.9774 128.263 52.0888C128.113 52.2002 127.989 52.3431 127.899 52.5074C127.81 52.6718 127.758 52.8536 127.746 53.0403C127.735 53.2269 127.764 53.4138 127.832 53.5879C128.337 54.8715 129.084 56.5864 128.727 57.2387C128.369 57.8911 127.369 58.5855 125.57 59.343C125.317 59.4665 125.111 59.6694 124.983 59.9208C124.856 60.1722 124.814 60.4584 124.864 60.7359C124.914 61.0134 125.053 61.2669 125.26 61.458C125.468 61.6491 125.732 61.7672 126.012 61.7944Z" fill="#2A0034"/>
<path d="M172.105 110.433C172.433 110.435 172.749 110.311 172.989 110.086C177.197 106.046 179.165 103.1 175.882 99.8385C173.22 97.7343 178.176 96.6822 176.429 94.5779C176.179 94.3465 175.847 94.2233 175.506 94.2351C175.165 94.2469 174.843 94.3928 174.609 94.6411C171.274 98.2393 172.505 100.081 174.03 101.669C175.956 103.552 174.704 104.626 171.221 108.255C171.052 108.436 170.938 108.661 170.893 108.904C170.848 109.147 170.873 109.398 170.966 109.627C171.059 109.856 171.216 110.054 171.418 110.197C171.619 110.34 171.858 110.422 172.105 110.433Z" fill="#2A0034"/>
<path d="M93.723 187.396C89.1389 184.727 85.0899 181.231 81.7815 177.085C81.5694 176.817 81.2596 176.644 80.9202 176.605C80.5808 176.565 80.2397 176.662 79.9718 176.874C79.7039 177.087 79.5313 177.396 79.4918 177.736C79.4524 178.075 79.5493 178.416 79.7614 178.684C85.6427 185.996 89.8301 187.764 94.5962 191.067C91.9975 193.34 76.7103 198.432 70.6501 197.107C63.3379 191.299 56.4991 181.914 56.4991 178.789C56.4991 175.991 66.8204 174.844 70.1766 174.476C70.5004 174.418 70.7903 174.24 70.9875 173.977C71.1846 173.714 71.2742 173.386 71.238 173.059C71.2019 172.732 71.0427 172.431 70.7928 172.218C70.5429 172.004 70.221 171.893 69.8926 171.908C60.0132 172.961 53.8899 174.539 53.8899 178.789C53.8899 183.04 61.4862 193.235 69.2403 199.306C70.3623 199.766 71.5767 199.957 72.7859 199.863C80.6452 199.758 106.759 193.55 93.723 187.396Z" fill="#2A0034"/>
<path d="M1.64194 56.4709C2.00044 56.429 2.36361 56.4835 2.69406 56.6287C2.7364 57.2335 2.66137 57.8409 2.47311 58.4173C0.894942 64.4985 6.0503 62.4995 8.05984 63.5832C7.9862 65.2139 7.97568 66.7395 10.8059 68.6544C11.0826 68.7758 11.3931 68.7965 11.6835 68.713C11.974 68.6294 12.226 68.4469 12.3959 68.197C12.5658 67.9471 12.643 67.6456 12.6139 67.3448C12.5848 67.044 12.4514 66.7628 12.2367 66.5501C10.5534 65.4244 10.5849 64.7826 10.6165 64.0461C10.7533 61.4789 9.17509 60.8056 4.72464 60.4479C5.41904 57.4388 6.16604 53.8301 1.5683 53.9353C1.27748 54.003 1.01904 54.1693 0.836805 54.4058C0.654569 54.6424 0.559747 54.9347 0.568417 55.2332C0.577087 55.5317 0.688714 55.818 0.884373 56.0435C1.08003 56.2691 1.34768 56.4201 1.64194 56.4709Z" fill="#2A0034"/>
<path d="M59.1918 19.2679C60.77 20.541 61.4223 21.067 59.6968 23.4764C59.5974 23.6145 59.5261 23.7709 59.487 23.9366C59.448 24.1024 59.442 24.2741 59.4694 24.4422C59.4967 24.6102 59.5569 24.7712 59.6465 24.916C59.7361 25.0608 59.8533 25.1865 59.9914 25.286C60.1296 25.3855 60.286 25.4568 60.4517 25.4958C60.6174 25.5348 60.7892 25.5408 60.9573 25.5135C61.1253 25.4861 61.2863 25.4259 61.4311 25.3364C61.5759 25.2468 61.7016 25.1296 61.8011 24.9914C67.1458 17.3004 56.6247 18.0685 59.9283 13.3445C60.0183 13.2012 60.0788 13.0415 60.1064 12.8746C60.1339 12.7077 60.1279 12.537 60.0888 12.3724C60.0496 12.2078 59.978 12.0527 59.8782 11.9162C59.7784 11.7796 59.6524 11.6643 59.5075 11.5769C59.2166 11.4008 58.8682 11.3462 58.5374 11.425C58.2067 11.5037 57.9202 11.7095 57.7399 11.9978C55.2043 16.0589 57.6978 18.0685 59.1918 19.2679Z" fill="#2A0034"/>
<path d="M23.0521 46.6126C23.7957 47.0372 24.4729 47.5689 25.0616 48.1908C24.2199 50.537 21.9789 52.8201 26.0506 55.7555C26.1889 55.8532 26.3453 55.9223 26.5106 55.9588C26.6759 55.9953 26.8468 55.9984 27.0134 55.968C27.1799 55.9377 27.3388 55.8744 27.4805 55.7819C27.6223 55.6894 27.7443 55.5695 27.8392 55.4293C29.0176 53.0095 24.8301 53.6302 26.8818 50.4844C27.3574 49.6686 27.6382 48.7541 27.7024 47.812C27.4078 46.1602 25.1879 45.0029 24.4409 44.4347C23.0415 43.551 22.6207 43.2879 23.7885 39.6055C23.8261 39.3091 23.759 39.0088 23.5989 38.7565C23.4388 38.5041 23.1956 38.3156 22.9114 38.2233C22.6271 38.1311 22.3196 38.1409 22.0418 38.2511C21.7641 38.3613 21.5334 38.5649 21.3897 38.827C19.8115 43.6246 20.5901 45.045 23.0521 46.6126Z" fill="#2A0034"/>
<path d="M72.3228 16.7954C71.7776 17.3553 71.354 18.0219 71.0786 18.7533C70.8033 19.4847 70.682 20.2651 70.7225 21.0455C70.763 21.826 70.9644 22.5896 71.314 23.2886C71.6636 23.9875 72.154 24.6067 72.7542 25.1071C73.9957 26.5275 74.627 27.3166 73.9957 28.8001C73.8562 29.1126 73.8465 29.4677 73.9689 29.7874C74.0912 30.107 74.3355 30.365 74.648 30.5045C74.9605 30.644 75.3157 30.6537 75.6353 30.5313C75.955 30.409 76.2129 30.1647 76.3524 29.8522C78.9406 24.055 70.3238 22.9608 74.4165 18.3315C79.877 12.1872 67.0517 8.6731 74.4902 2.26572C74.7497 2.04389 74.9104 1.72805 74.9371 1.38769C74.9637 1.04733 74.8541 0.710328 74.6322 0.450823C74.4104 0.191317 74.0946 0.0305639 73.7542 0.00392704C73.4138 -0.0227098 73.0768 0.0869516 72.8173 0.308787C68.6089 3.8965 68.5247 8.33642 72.6174 13.5128C73.7116 14.9016 73.3329 15.4172 72.3228 16.7954Z" fill="#2A0034"/>
<path d="M106.084 45.7395C106.095 46.0809 106.241 46.4041 106.489 46.6386C106.737 46.8731 107.068 47 107.41 46.9915C109.914 46.7074 108.031 41.8361 107.904 41.2048C113.165 39.795 114.848 40.542 111.324 34.4924C112.02 34.0426 112.8 33.7384 113.617 33.5981C113.947 33.5116 114.228 33.2978 114.4 33.0038C114.571 32.7098 114.619 32.3597 114.533 32.0304C114.446 31.7011 114.232 31.4197 113.938 31.2481C113.644 31.0764 113.294 31.0286 112.965 31.1151C107.968 32.3881 108.02 34.6186 110.251 37.9538C107.441 39.1006 103.57 38.2274 105.053 41.2785C105.337 41.7204 106.011 42.762 106.084 45.7395Z" fill="#2A0034"/>
<path d="M86.2314 24.3388C86.0839 24.6174 86.0441 24.9405 86.1195 25.2465C86.195 25.5526 86.3804 25.8202 86.6404 25.9983C86.9005 26.1764 87.217 26.2526 87.5296 26.2124C87.8422 26.1722 88.1291 26.0184 88.3356 25.7802C93.4909 18.2997 84.4954 17.4264 90.1137 12.734C91.3762 11.6819 89.6086 9.68286 88.3882 10.8297C81.1602 17.3738 90.3451 18.3839 86.2314 24.3388Z" fill="#2A0034"/>
<path d="M72.7009 177.033C67.8611 177.474 61.7168 177.864 60.8646 179.821C58.6131 182.798 69.7023 192.962 72.7009 193.34C74.0686 194.035 87.6935 192.541 86.1574 188.827C86.0701 188.682 85.9548 188.556 85.8182 188.456C85.6816 188.356 85.5265 188.285 85.3619 188.245C85.1974 188.206 85.0267 188.2 84.8598 188.228C84.6929 188.255 84.5331 188.316 84.3899 188.406C80.9716 190.389 77.0071 191.223 73.0796 190.784C70.9754 190.489 64.1787 183.556 63.1266 181.115C64.5154 180.063 70.26 179.842 72.9113 179.589C73.2408 179.549 73.5421 179.383 73.7519 179.126C73.9617 178.869 74.0637 178.54 74.0364 178.21C74.0092 177.879 73.8549 177.571 73.6059 177.352C73.3568 177.132 73.0325 177.018 72.7009 177.033Z" fill="#2A0034"/>
<path d="M158.459 170.078C161.994 170.909 165.361 169.247 166.024 165.417C166.054 165.249 166.051 165.077 166.014 164.91C165.978 164.744 165.909 164.586 165.811 164.446C165.713 164.306 165.588 164.187 165.444 164.096C165.3 164.004 165.14 163.942 164.972 163.913C163.036 163.597 163.509 166.701 162.194 167.195C161.187 167.722 160.019 167.85 158.922 167.553C158.587 167.492 158.242 167.566 157.961 167.759C157.681 167.953 157.489 168.249 157.428 168.584C157.367 168.919 157.441 169.264 157.634 169.545C157.828 169.825 158.124 170.017 158.459 170.078Z" fill="#2A0034"/>
<path d="M93.3548 158.336C95.3643 157.915 97.4475 157.063 99.5518 156.411C99.7411 156.411 104.465 158.515 104.497 158.336C104.789 158.327 105.07 158.22 105.293 158.031C105.516 157.842 105.669 157.583 105.727 157.297C105.784 157.01 105.742 156.712 105.609 156.452C105.475 156.192 105.258 155.984 104.991 155.864L103.35 155.19C105.044 154.254 109.526 154.728 109.242 152.56C109.215 152.395 109.156 152.237 109.068 152.095C108.98 151.952 108.864 151.829 108.729 151.731C108.593 151.633 108.439 151.563 108.276 151.525C108.113 151.487 107.944 151.481 107.779 151.508C105.014 152.017 102.294 152.749 99.6464 153.696L95.1329 151.834C94.8176 151.705 94.4636 151.705 94.1489 151.837C93.8342 151.968 93.5845 152.219 93.4548 152.534C93.325 152.849 93.3258 153.203 93.457 153.518C93.5882 153.833 93.8391 154.082 94.1544 154.212L95.9009 154.938C94.9119 155.264 93.9335 155.58 92.9971 155.853C92.7225 155.956 92.4912 156.149 92.3417 156.401C92.1922 156.653 92.1334 156.949 92.1752 157.239C92.217 157.529 92.3568 157.796 92.5714 157.996C92.786 158.195 93.0625 158.316 93.3548 158.336Z" fill="#2A0034"/>
<path d="M46.5665 152.413C41.064 156.874 34.9933 153.412 34.7618 153.265C34.4688 153.091 34.1185 153.04 33.788 153.124C33.4575 153.208 33.1739 153.419 32.9995 153.712C32.8251 154.005 32.7742 154.356 32.8581 154.686C32.942 155.017 33.1537 155.3 33.4467 155.475C35.5643 156.608 37.9255 157.211 40.3275 157.232C41.569 157.495 50.0069 155.59 48.3551 152.602C48.1397 152.345 47.8328 152.181 47.4991 152.146C47.1654 152.111 46.831 152.206 46.5665 152.413Z" fill="#2A0034"/>
<path d="M154.714 177.769C155.961 177.779 157.207 177.655 158.428 177.401C159.754 179.673 158.27 180.02 156.124 179.905C155.956 179.881 155.785 179.891 155.621 179.934C155.456 179.976 155.302 180.051 155.167 180.154C155.032 180.257 154.919 180.385 154.834 180.532C154.749 180.679 154.694 180.841 154.672 181.009C154.672 183.871 160.28 182.303 160.985 180.62C161.802 180.786 162.649 180.73 163.439 180.461C164.228 180.191 164.932 179.715 165.477 179.084C166.529 177.8 164.52 176.138 163.489 177.453C163.131 177.874 162.005 178.505 161.384 178.011C161.27 177.49 161.086 176.988 160.837 176.517C162.226 175.78 164.078 173.413 162.079 172.477C161.918 172.424 161.749 172.404 161.581 172.416C161.413 172.429 161.249 172.475 161.099 172.551C160.948 172.627 160.814 172.733 160.704 172.861C160.594 172.989 160.511 173.137 160.458 173.297C160.048 174.497 157.954 175.191 154.693 175.191C154.371 175.223 154.073 175.373 153.857 175.614C153.641 175.854 153.523 176.166 153.525 176.49C153.528 176.813 153.651 177.123 153.871 177.36C154.091 177.597 154.392 177.742 154.714 177.769Z" fill="#2A0034"/>
<path d="M141.689 173.75C144.635 175.602 150.264 175.55 152.21 172.204C152.36 171.91 152.393 171.569 152.3 171.252C152.207 170.935 151.996 170.665 151.711 170.498C151.426 170.331 151.088 170.28 150.766 170.354C150.444 170.429 150.162 170.624 149.98 170.899C148.864 172.814 144.951 172.74 143.109 171.573C142.821 171.384 142.469 171.318 142.131 171.389C141.794 171.46 141.499 171.663 141.31 171.951C141.122 172.24 141.056 172.592 141.127 172.929C141.198 173.267 141.4 173.562 141.689 173.75Z" fill="#2A0034"/>
<path d="M177.671 151.182C192.18 115.105 188.192 115.968 150.127 124.522C146.653 114.523 139.735 106.087 130.61 100.723C141.573 80.0489 118.458 56.8814 96.1847 50.8633C97.1421 46.1393 93.9858 42.0466 88.7252 41.3206C86.7262 36.7334 80.5082 34.8711 76.2261 37.3331C70.6078 30.6627 63.3903 30.3996 58.2139 34.0189L44.8415 18.6686C44.7352 18.5252 44.6004 18.4053 44.4456 18.3166C44.2908 18.2278 44.1193 18.172 43.9419 18.1527C43.7644 18.1334 43.5849 18.151 43.4146 18.2044C43.2444 18.2578 43.0869 18.3458 42.9523 18.463C42.8177 18.5801 42.7087 18.7239 42.6323 18.8852C42.5559 19.0465 42.5137 19.2218 42.5084 19.4002C42.503 19.5786 42.5346 19.7562 42.6011 19.9218C42.6677 20.0874 42.7678 20.2374 42.8951 20.3625L56.3306 35.797C55.7188 36.5506 55.2224 37.3909 54.8576 38.2905L32.2266 26.1175C32.0778 26.0063 31.9069 25.9285 31.7253 25.8893C31.5437 25.85 31.3559 25.8503 31.1744 25.8902C30.993 25.93 30.8223 26.0085 30.6739 26.1201C30.5254 26.2318 30.4028 26.3742 30.3143 26.5375C30.2258 26.7008 30.1734 26.8812 30.1609 27.0665C30.1483 27.2519 30.1757 27.4377 30.2414 27.6115C30.307 27.7853 30.4093 27.9429 30.5413 28.0736C30.6732 28.2043 30.8318 28.3051 31.0062 28.3691L54.1527 40.8471C54.0551 41.7796 54.0834 42.7209 54.2369 43.6458C47.4823 46.0656 46.8721 49.7375 47.0299 51.6208C22.0001 56.0502 1.78896 86.3406 20.2115 104.521C9.01699 111.518 -1.68301 124.217 0.221314 140.114C0.702538 144.975 2.57968 149.592 5.62635 153.41C8.67302 157.228 12.7591 160.082 17.3918 161.63C17.404 163.521 17.9019 165.377 18.8378 167.021C19.7737 168.664 21.1163 170.039 22.7366 171.015C15.5761 173.294 8.55068 175.978 1.69427 179.053C1.52042 179.108 1.36019 179.199 1.22409 179.321C1.088 179.442 0.979109 179.591 0.904569 179.758C0.830029 179.924 0.791522 180.104 0.791573 180.287C0.791623 180.469 0.83023 180.65 0.904862 180.816C0.979494 180.982 1.08847 181.131 1.22463 181.253C1.36079 181.374 1.52107 181.465 1.69496 181.52C1.86884 181.575 2.05241 181.593 2.23361 181.572C2.41481 181.551 2.58956 181.492 2.74639 181.399C12.4258 176.98 18.9384 175.086 26.6294 172.404C27.967 172.642 29.3337 172.671 30.68 172.488C31.1009 173.393 31.0693 174.76 32.0057 175.339C34.8407 176.949 38.0265 177.841 41.2854 177.938C49.6181 177.801 52.9533 171.394 54.2369 163.924C58.8978 162.345 61.9489 160.936 66.0416 159.294C66.0416 159.957 66.1784 160.778 66.8517 161.083C70.1449 162.65 74.6269 165.491 79.4771 168.29C93.9858 176.57 107.179 187.575 119.237 179.526C121.183 184.482 125.76 187.996 132.398 189.437C133.629 190.489 137.07 191.131 139.574 190.752C140.589 191.469 141.777 191.9 143.014 192.002C144.252 192.104 145.495 191.872 146.613 191.331C149.201 192.983 153.462 192.289 154.609 189.227C155.072 189.227 155.524 189.227 155.987 189.164C153.062 203.094 189.507 194.098 189.886 177.591C190.337 172.505 189.446 167.39 187.303 162.756C185.159 158.123 181.838 154.132 177.671 151.182ZM129.095 102.785C137.721 107.792 144.293 115.695 147.644 125.09C143.319 126.142 137.67 127.047 133.177 128.667C135.397 120.587 124.971 112.275 119.731 109.918C123.33 108.258 126.525 105.834 129.095 102.817V102.785ZM130.873 125.679C130.976 126.662 130.821 127.655 130.422 128.559C130.024 129.463 129.396 130.248 128.6 130.835C126.014 132.223 123.185 133.101 120.268 133.423C121.604 130.782 121.52 127.015 119.794 123.459C119.645 123.152 119.38 122.917 119.057 122.806C118.735 122.694 118.381 122.715 118.074 122.865C117.767 123.014 117.532 123.279 117.42 123.602C117.309 123.924 117.33 124.278 117.479 124.585C119.163 128.067 118.889 131.95 116.932 133.528C114.377 133.412 111.849 132.963 109.41 132.192C109.568 131.297 110.209 118.514 107.179 119.219C107.009 119.247 106.847 119.309 106.701 119.4C106.556 119.492 106.43 119.612 106.332 119.754C106.234 119.895 106.165 120.055 106.13 120.223C106.095 120.392 106.094 120.565 106.127 120.734C107.052 124.714 107.234 128.83 106.664 132.876C105.012 141.587 100.551 136.716 96.9317 125.037C96.8846 124.875 96.8058 124.723 96.6997 124.591C96.5937 124.459 96.4626 124.349 96.3139 124.268C96.1653 124.187 96.002 124.136 95.8336 124.118C95.6651 124.1 95.4948 124.116 95.3325 124.164C93.3019 125.027 95.3325 127.762 95.5534 129.099C76.6154 122.039 103.286 103.416 119.205 112.496C123.645 114.642 130.305 120.597 130.873 125.711V125.679ZM76.5733 40.1633C80.2662 37.0069 87.2522 39.795 86.8524 44.8767C86.3264 45.0346 85.8003 45.1398 85.3374 45.2871C83.3068 38.9744 76.2682 41.2996 74.8162 47.3913C74.1008 47.4649 73.3748 47.5596 72.712 47.6017C73.3643 44.1508 74.6795 41.6152 76.5733 40.1633ZM82.886 45.9394C81.0553 46.3813 79.3403 46.6969 77.699 46.9915C78.8985 44.1508 82.0127 42.8882 82.8439 45.9394H82.886ZM74.1429 38.8902C73.7098 39.3008 73.3088 39.744 72.9435 40.2159C71.4954 38.9527 69.7132 38.1347 67.8112 37.8604C65.9093 37.586 63.9685 37.8669 62.2224 38.6693L59.8762 35.9759C63.8111 33.1877 69.8923 33.7138 74.1429 38.8902ZM62.4855 46.7916C61.7686 46.6142 61.0654 46.3857 60.3812 46.1077C60.7705 39.1848 67.8197 39.0375 71.5968 42.4884C71.4074 42.9093 71.218 43.3617 71.0497 43.8352C67.2726 41.5521 62.9694 42.6147 62.4855 46.7916ZM70.3448 46.4234C70.2606 46.8232 70.1764 47.2335 70.1028 47.6648C68.4021 47.6795 66.7029 47.5599 65.0211 47.3071C65.1789 44.6032 68.0091 44.7294 70.3448 46.4234ZM58.0666 37.775L60.1708 40.1738C59.9576 40.3749 59.7573 40.5893 59.5711 40.8156L57.1618 39.511C57.3835 38.894 57.6879 38.3101 58.0666 37.775ZM58.3191 43.0355C58.1389 43.5766 58.0086 44.1331 57.9298 44.6979C57.583 44.4384 57.2559 44.1536 56.9513 43.8457C56.8179 43.297 56.7368 42.7368 56.7094 42.1728L58.3191 43.0355ZM55.4573 45.9499C62.6433 52.7886 78.8985 49.9269 88.378 47.0651C89.609 46.6969 89.4301 45.0661 89.4301 44.0666C99.8881 47.9805 90.7347 60.3323 75.4896 60.6164C58.0035 62.0367 40.0754 51.8838 55.4573 45.992V45.9499ZM22.442 106.226C26.2612 108.803 30.8589 109.75 34.3624 108.73C34.899 112.286 36.7823 117.788 39.623 120.429C35.6534 123.142 32.1078 126.429 29.1019 130.182C23.3152 125.037 12.1102 123.964 3.49339 129.54C6.14472 119.272 14.246 111.118 22.442 106.226ZM21.3057 166.196C17.9389 160.936 21.0216 153.907 27.8183 155.138C27.7509 155.665 27.7123 156.196 27.7025 156.727C19.8433 156.485 20.7375 168.679 29.2176 167.343C29.4491 168.216 29.7016 169.1 29.9751 170.015C26.177 170.278 23.0732 168.932 21.3162 166.196H21.3057ZM28.5653 164.786C24.22 165.639 23.3047 158.905 27.7131 159.294C27.8633 161.137 28.1516 162.966 28.5758 164.765L28.5653 164.786ZM51.8065 162.798C50.828 172.782 44.0209 178.822 33.6575 173.319C26.8714 151.467 28.8283 146.9 50.6913 150.414C51.9097 154.415 52.2929 158.622 51.817 162.777L51.8065 162.798ZM67.8092 155.885C62.9063 157.695 59.7815 159.263 54.542 161.146C54.6051 157.99 54.4263 149.573 51.9012 148.121C38.2973 145.932 31.9847 145.754 28.4811 152.687C23.2205 151.824 18.8437 154.286 17.7075 159.073C7.41778 155.612 1.29447 144.102 2.83056 133.233C10.5846 126.647 22.1579 127.289 27.5237 132.181C26.8293 133.454 24.2832 135.222 25.9034 136.642C26.0422 136.739 26.1986 136.806 26.3637 136.842C26.5288 136.878 26.6993 136.881 26.8654 136.85C27.0316 136.82 27.1901 136.757 27.332 136.666C27.4738 136.574 27.5962 136.455 27.692 136.316C37.9396 121.26 51.8907 113.17 69.7135 119.482C81.7918 122.554 92.86 144.196 74.9741 134.896C74.6528 131.182 72.9254 127.731 70.1449 125.248C69.9007 125.009 69.5718 124.877 69.2304 124.881C68.8891 124.885 68.5633 125.025 68.3247 125.269C68.0861 125.513 67.9543 125.842 67.9583 126.183C67.9622 126.525 68.1016 126.85 68.3457 127.089C73.0592 131.571 74.2165 138.157 69.1033 142.145C69.1033 140.651 67.1884 132.213 64.3688 133.633C64.0885 133.827 63.8959 134.123 63.8329 134.458C63.7698 134.793 63.8414 135.139 64.0321 135.422C65.7845 137.761 66.6495 140.647 66.473 143.565C62.9379 144.838 58.0561 144.502 52.4378 141.229C52.1434 141.058 51.7929 141.01 51.4634 141.097C51.1339 141.184 50.8523 141.398 50.6807 141.692C50.5091 141.987 50.4615 142.337 50.5483 142.667C50.6351 142.996 50.8493 143.278 51.1437 143.449C59.8552 148.657 72.186 148.215 74.7742 137.694C80.424 140.851 87.5679 141.124 86.7683 133.78C86.1475 128.036 79.7507 120.24 70.5236 117.052C60.1498 113.464 50.5966 114.148 41.9692 119.009C39.3179 117.399 37.0874 111.034 36.7928 107.614C37.6271 107.026 38.3281 106.268 38.8502 105.391C39.3723 104.514 39.7037 103.536 39.8229 102.522C41.3169 91.8958 47.7453 77.9026 53.8266 75.7142C54.7127 75.4034 55.6716 75.3656 56.5795 75.6057C57.4873 75.8458 58.3022 76.3527 58.9188 77.0609C66.9464 84.2258 67.0201 72.8525 74.953 77.6606C80.3188 80.817 84.4221 79.102 91.1556 74.3675C98.6782 69.0438 116.922 83.6472 110.199 107.551C103.726 107.152 97.3283 109.119 92.1972 113.085C83.6645 120.082 83.9802 128.615 96.7949 132.139C100.919 141.608 106.464 142.566 108.926 134.717C111.977 135.843 118.984 136.768 123.434 135.485C122.215 136.969 121.127 138.557 120.183 140.23C105.338 144.27 71.8914 150.951 67.8197 155.864L67.8092 155.885ZM118.447 176.833C116.091 178.849 113.067 179.914 109.967 179.821C100.351 179.526 79.7296 164.66 68.6298 159.094C72.933 152.298 104.065 147.742 118.542 143.376C116.322 147.858 113.955 154.118 111.777 159.547C110.841 159.073 110.725 159.652 102.992 162.503C102.671 162.62 102.41 162.86 102.266 163.17C102.122 163.48 102.107 163.834 102.224 164.155C102.341 164.476 102.581 164.737 102.891 164.881C103.2 165.025 103.555 165.04 103.876 164.923C106.79 163.871 107.758 163.419 110.672 162.282C109.473 165.228 108.158 168.363 106.643 171.751C106.503 172.062 106.493 172.416 106.614 172.735C106.736 173.054 106.979 173.311 107.29 173.45C107.601 173.59 107.955 173.6 108.273 173.479C108.592 173.357 108.849 173.115 108.989 172.803C116.806 156.243 120.32 133.318 137.901 129.982C151.042 127.489 180.901 119.198 182.09 123.575C184.457 126.331 181.311 134.948 175.441 149.825C159.743 139.146 115.27 146.858 118.458 176.812L118.447 176.833ZM187.308 177.422C186.603 192.278 153.809 198.57 158.901 188.911C168.276 187.544 177.071 182.493 177.345 173.277C177.545 166.712 172.326 159.242 160.427 158.105C154.209 150.867 148.854 152.403 146.665 161.64C144.056 161.998 142.246 162.935 140.11 161.398C133.209 157.095 130.641 163.029 127.79 172.877C127.701 173.206 127.746 173.558 127.916 173.854C128.085 174.149 128.366 174.366 128.695 174.455C129.024 174.545 129.376 174.499 129.672 174.33C129.967 174.16 130.184 173.88 130.273 173.55C132.483 165.397 134.398 163.113 135.628 162.629C137.386 161.925 139.837 164.944 141.857 164.807C145.935 164.636 149.948 163.731 153.704 162.135C153.86 162.072 154.002 161.978 154.121 161.859C154.241 161.74 154.336 161.599 154.4 161.444C154.465 161.288 154.498 161.121 154.498 160.953C154.497 160.784 154.464 160.617 154.398 160.462C153.346 158.589 151.095 160.736 149.548 160.883C151.6 154.402 154.293 154.96 158.807 160.167C159.032 160.428 159.348 160.594 159.69 160.63C182.911 162.935 178.134 186.47 154.661 186.712C154.388 185.755 153.167 182.567 151.505 183.809C151.369 183.909 151.254 184.036 151.167 184.182C151.081 184.327 151.025 184.489 151.002 184.657C150.98 184.825 150.991 184.995 151.036 185.159C151.081 185.322 151.158 185.475 151.263 185.608C151.852 186.376 152.725 187.807 151.989 188.764C151.505 189.213 150.901 189.51 150.251 189.621C149.6 189.731 148.932 189.649 148.327 189.385C147.822 189.17 147.413 188.777 147.179 188.28C146.944 187.784 146.9 187.218 147.054 186.691C147.083 186.525 147.078 186.355 147.041 186.191C147.003 186.027 146.934 185.872 146.836 185.735C146.738 185.598 146.614 185.482 146.471 185.393C146.328 185.305 146.169 185.245 146.002 185.218C143.898 185.029 144.351 188.133 144.834 189.269C142.036 189.932 140.037 188.648 139.784 186.533C139.797 186.364 139.776 186.194 139.721 186.033C139.667 185.873 139.581 185.724 139.468 185.598C139.355 185.471 139.218 185.368 139.064 185.296C138.911 185.224 138.744 185.183 138.574 185.176C136.902 185.113 137.049 187.196 137.522 188.333C129.758 188.732 131.872 179.211 138.385 179.579C138.725 179.603 139.061 179.49 139.319 179.266C139.576 179.042 139.734 178.725 139.758 178.385C139.782 178.044 139.669 177.709 139.445 177.451C139.221 177.194 138.904 177.036 138.564 177.012C133.777 176.454 128.937 181.452 130.052 186.176C110.704 178.937 125.128 154.455 139.248 150.898C169.296 141.524 188.013 154.96 187.319 177.401L187.308 177.422Z" fill="#2A0034"/>
<path d="M101.687 167.5C95.5536 166.006 86.2634 159.325 80.2033 156.979C79.8901 156.891 79.5554 156.925 79.2657 157.072C78.976 157.22 78.7525 157.472 78.6398 157.777C78.5271 158.082 78.5333 158.418 78.6573 158.719C78.7813 159.019 79.014 159.262 79.309 159.399C82.9177 160.094 101.088 173.077 102.624 169.047C102.665 168.884 102.673 168.714 102.648 168.548C102.623 168.382 102.565 168.222 102.478 168.079C102.391 167.935 102.276 167.81 102.14 167.71C102.005 167.611 101.851 167.54 101.687 167.5Z" fill="#2A0034"/>
<path d="M82.2966 90.2333C83.6328 90.2333 91.5552 83.7523 88.6093 81.8164C88.2994 81.6725 87.9452 81.657 87.6239 81.7733C87.3026 81.8896 87.0404 82.1282 86.8944 82.4371C85.7122 84.7296 83.8831 86.6247 81.6338 87.8871C81.4161 88.0417 81.2515 88.26 81.1627 88.5119C81.0739 88.7637 81.0652 89.0369 81.1379 89.2939C81.2105 89.5509 81.3608 89.7792 81.5683 89.9474C81.7757 90.1156 82.0301 90.2154 82.2966 90.2333Z" fill="#2A0034"/>
<path d="M89.514 100.965C92.5441 104.9 98.0677 105.594 99.2355 105.699C99.576 105.716 99.9091 105.597 100.162 105.368C100.414 105.139 100.565 104.819 100.582 104.479C100.599 104.138 100.48 103.805 100.251 103.553C100.022 103.3 99.7022 103.149 99.3618 103.132C98.5828 103.043 97.8123 102.892 97.0577 102.68C103.854 102.143 109.525 92.4006 106.432 88.3815C102.287 82.8158 89.3667 87.0453 87.9463 93.9577C87.2625 96.9457 87.8306 99.3866 89.514 100.965ZM98.4359 88.6025C107.905 86.7087 105.306 96.2408 99.1934 99.334C99.0085 97.5435 98.4493 95.8118 97.5521 94.2512C96.6549 92.6907 95.4398 91.3361 93.9855 90.2753C95.3606 89.4658 96.8668 88.9032 98.4359 88.613V88.6025Z" fill="#2A0034"/>
<path d="M84.3479 105.731C81.3589 105.509 78.3536 105.696 75.4155 106.288C75.1067 106.382 74.844 106.587 74.6788 106.864C74.5136 107.141 74.4577 107.47 74.5223 107.786C74.5868 108.102 74.767 108.382 75.0276 108.572C75.2882 108.763 75.6104 108.848 75.931 108.813C78.6546 108.265 81.4405 108.091 84.2111 108.298C84.5516 108.316 84.8853 108.198 85.1388 107.97C85.3923 107.742 85.545 107.423 85.5631 107.083C85.5812 106.742 85.4634 106.409 85.2355 106.155C85.0076 105.901 84.6883 105.749 84.3479 105.731Z" fill="#2A0034"/>
<path d="M57.4142 89.6965C39.5809 88.3287 45.5253 106.72 60.4653 106.53C58.84 107.362 57.104 107.958 55.31 108.298C54.9966 108.353 54.7143 108.521 54.5172 108.771C54.3201 109.021 54.222 109.334 54.2415 109.652C54.261 109.97 54.3969 110.269 54.6231 110.493C54.8493 110.716 55.15 110.849 55.4678 110.865C58.6241 110.539 65.2209 107.709 67.9669 104.11C73.2591 97.0823 65.0736 90.2752 57.4142 89.6965ZM56.8987 103.511C52.5534 103.258 47.7242 97.0718 49.1867 94.4836C50.2388 91.9059 57.1196 91.6324 60.5811 92.9896C57.2459 96.0407 55.573 100.775 56.8987 103.511Z" fill="#2A0034"/>
<path d="M71.5961 88.3395C69.0796 87.5387 66.8738 85.9763 65.2834 83.8681C65.1884 83.7282 65.0666 83.6084 64.9251 83.5157C64.7837 83.423 64.6253 83.3592 64.4591 83.3279C64.2929 83.2966 64.1221 83.2985 63.9566 83.3334C63.7912 83.3683 63.6342 83.4356 63.4948 83.5314C61.3906 84.7308 66.0935 89.5495 71.291 90.8962C71.6114 90.9016 71.9224 90.7879 72.1638 90.5772C72.4052 90.3666 72.5598 90.0738 72.5978 89.7556C72.6358 89.4374 72.5544 89.1165 72.3693 88.8549C72.1843 88.5933 71.9088 88.4097 71.5961 88.3395Z" fill="#2A0034"/>
<path d="M75.321 101.343C74.7318 98.0184 78.3511 96.9137 80.5815 98.0395C81.0454 98.2845 81.4202 98.6696 81.6525 99.1399C81.8849 99.6103 81.9629 100.142 81.8756 100.659C81.8555 101.001 81.9715 101.337 82.1982 101.593C82.425 101.849 82.744 102.005 83.0856 102.027C86.1577 101.617 83.6537 96.3456 81.8125 95.7143C77.7724 93.4207 71.607 96.7664 72.8169 101.785C72.9238 102.067 73.1255 102.302 73.3875 102.451C73.6495 102.6 73.9551 102.653 74.2519 102.601C74.5486 102.548 74.8177 102.394 75.0129 102.164C75.2081 101.935 75.317 101.644 75.321 101.343Z" fill="#2A0034"/>
</svg>
