<svg width="139" height="121" viewBox="0 0 139 121" fill="none" xmlns="http://www.w3.org/2000/svg">
<path d="M96.7536 32.0749C96.7536 32.0749 95.0081 31.5018 90.9325 28.3414C88.3241 26.2501 86.0526 23.7288 84.2058 20.8745C84.2058 20.8745 80.5254 26.2663 79.7844 28.2459C81.8263 31.3282 83.5059 31.4931 84.1481 33.0473C84.9715 35.0529 84.321 37.2496 83.5965 38.7951C80.6077 45.1853 73.494 50.1864 73.494 50.1864C73.494 50.1864 72.8024 61.135 71.8473 63.2709C70.8922 65.4067 70.3323 67.0825 67.5082 65.5717C64.6842 64.061 52.2763 57.6967 52.2763 57.6967L46.307 56.7504C43.9165 57.4162 41.4515 57.7375 38.9792 57.7054C34.5496 61.1784 29.7412 67.4297 30.1035 71.1806C30.4658 74.9314 36.5668 86.0623 37.9912 87.8248C39.4156 89.5873 40.8153 91.1502 42.6102 90.3253C44.4051 89.5005 46.4141 87.1649 49.197 83.2231C50.1603 81.8773 54.7381 79.5157 56.9611 80.0714C58.1662 78.9173 59.3044 77.6879 60.3698 76.39C61.399 75.0529 63.6632 70.9809 66.4297 70.6943C69.1961 70.4078 71.7403 73.4641 73.107 75.4089C74.4738 77.3538 74.5973 81.1393 73.5269 82.3115C72.4566 83.4836 67.2283 85.9147 65.2934 87.2344C64.5044 87.747 63.7455 88.3094 63.021 88.9188L63.7702 90.6553H71.1804C79.2657 90.6553 89.6646 83.4489 84.708 62.0032C95.7738 46.6093 96.7536 32.0749 96.7536 32.0749Z" fill="#9B7EBD"/>
<path d="M65.4985 44.2996C64.3376 43.9437 63.8518 46.1577 62.6745 45.8104C59.3152 44.5601 57.1992 46.8696 59.7351 49.6133C64.6917 54.953 69.4259 45.5152 65.4985 44.2996ZM65.2351 46.5137C65.2351 50.2037 61.53 50.5683 60.2373 47.2864C61.8429 47.3038 63.9589 48.1894 65.2351 46.5137Z" fill="#2B0034"/>
<path d="M18.6009 102.697H19.4984C18.675 103.132 18.7409 104.495 19.7536 104.521C20.6675 104.304 21.2439 103.27 22.0672 102.784C23.4422 102.828 24.9819 102.888 26.4145 102.949C25.8052 103.705 25.1959 104.495 24.5784 105.241C23.3434 105.571 22.1084 104.59 21.6061 105.884C21.4332 106.752 22.2648 107.056 22.9564 107.039C22.059 107.507 21.5403 108.984 22.8741 109.148C23.9033 108.888 24.5208 107.794 25.3441 106.952C26.4935 106.789 27.6572 106.771 28.8104 106.9C28.9187 106.925 29.0307 106.927 29.1397 106.905C29.2487 106.884 29.3525 106.839 29.4447 106.774C29.537 106.709 29.6159 106.626 29.6767 106.528C29.7375 106.43 29.7789 106.32 29.7984 106.205C29.8808 104.651 27.9541 105.111 26.8756 105.068C27.4272 104.364 28.0035 103.626 28.5223 103.027C29.6749 102.88 31.3875 103.67 31.6016 102.159C31.6016 101.36 30.8441 101.221 30.2101 101.291C30.5065 99.4155 28.514 100.188 27.8306 101.23L24.0432 101.03C25.1959 100.388 28.0282 96.4895 24.8666 97.6703C23.863 98.8869 22.7366 99.9845 21.5073 100.944C20.05 101.152 18.074 100.162 17.7529 101.812C17.7506 101.929 17.771 102.046 17.8129 102.156C17.8548 102.265 17.9174 102.364 17.9967 102.446C18.076 102.529 18.1705 102.594 18.2743 102.637C18.3782 102.681 18.4893 102.701 18.6009 102.697Z" fill="#2B0034"/>
<path d="M132.602 111.007C122.722 112.17 104.411 111.189 91.6899 111.232C91.1803 111.247 90.6785 111.369 90.2136 111.589C89.7487 111.81 89.3298 112.125 88.981 112.517C84.4115 116.268 74.2266 113.603 69.056 114.375C65.8696 113.733 57.5291 115.912 52.4408 113.238C51.0344 112.074 49.2884 111.46 47.5007 111.502C36.9207 111.502 16.7322 111.771 7.099 111.25C6.98547 111.24 6.87128 111.256 6.76366 111.295C6.65603 111.334 6.55731 111.397 6.47374 111.478C6.39017 111.56 6.32356 111.659 6.27812 111.769C6.23269 111.879 6.20942 111.998 6.20978 112.118C6.20186 112.237 6.21729 112.357 6.25511 112.469C6.29292 112.581 6.35231 112.684 6.42957 112.772C6.50683 112.859 6.6003 112.928 6.70415 112.976C6.80799 113.023 6.91998 113.047 7.03313 113.047C16.7486 113.568 36.9207 113.342 47.5337 113.308C51.3375 113.264 51.6504 116.181 55.339 116.216C67.8127 116.216 71.6825 116.112 83.2588 116.216C88.8411 116.39 88.7834 114.019 91.6816 113.047C104.485 113.047 122.788 113.993 132.783 112.804C133.837 112.656 133.714 110.842 132.602 111.007Z" fill="#2B0034"/>
<path d="M118.712 95.1524C123.191 91.2626 121.133 77.1624 122.088 70.2598C122.771 53.4419 123.488 36.051 121.742 28.4192C120.655 23.6959 117.337 23.1316 102.706 23.1055C111.096 3.44846 98.2766 -2.6987 89.5327 1.03475C87.219 2.02455 86.2393 4.4209 85.8194 7.47712C79.1832 1.92035 78.3598 11.3929 82.2048 17.7311C80.8052 19.6412 79.4466 21.3951 78.2775 23.1229C70.2251 7.76363 43.8121 12.3219 36.0232 23.4875C16.1476 22.7408 16.9792 25.1459 17.2591 46.878C18.6094 57.6703 14.0151 89.7085 20.5525 95.1437C14.0892 98.2086 4.56307 107.759 1.33554 111.328C-1.02747 113.88 -0.0806203 119.576 2.80933 120.297C8.80331 120.644 25.6161 121 69.8793 121C80.7393 121 93.987 121 108.149 120.931C137.888 120.826 138.456 120.826 138.802 113.056C139.024 108.697 128.247 98.7556 118.712 95.1524ZM120.112 28.8359C122.409 38.6644 120.244 68.8706 119.84 85.4454C119.593 94.1279 117.806 94.2494 114.233 94.4057C110.66 94.562 106.461 94.5533 102.542 94.4838C90.002 94.3883 76.8119 94.4838 62.6421 94.7183C63.3079 93.7682 63.8019 92.6968 64.0994 91.5579C75.6263 91.5579 107.045 92.0962 112.916 90.9414C120.137 89.5175 117.074 42.6236 117.156 33.1511C117.749 28.2281 109.384 28.6883 102.863 28.4713C102.503 27.625 102.059 26.8216 101.537 26.0749C101.702 25.6755 101.866 25.2848 102.031 24.8767C117.601 24.8941 119.387 25.6668 120.112 28.8359ZM55.7589 94.8919C56.6452 95.6364 57.6865 96.1482 58.797 96.3853C58.0872 96.9762 57.3232 97.4911 56.5164 97.9221C54.8697 98.3388 53.0336 95.3173 51.5104 96.4113C50.8353 97.7918 53.0583 98.3996 53.8158 98.9466C48.8757 100.093 44.8989 96.2116 42.7747 90.8893C47.229 88.2846 50.72 80.8177 55.3555 80.3054C55.5638 80.6352 55.698 81.0107 55.7479 81.4034C55.7979 81.796 55.7622 82.1956 55.6436 82.5715C54.9026 86.6783 58.6735 90.8893 62.535 90.0037C62.7574 91.4971 61.5306 93.4767 60.452 94.7617C59.1338 94.8161 57.8405 94.3727 56.8045 93.5114C55.9647 92.7734 54.9026 94.1886 55.7589 94.8919ZM47.9535 99.8583C44.6601 102.802 41.1362 110.98 36.1714 104.199C32.1617 97.2535 37.4394 96.8541 41.9925 93.3898C43.3363 96.1148 45.409 98.3639 47.9535 99.8583ZM58.9864 87.3729C57.3891 86.6523 57.101 83.3443 57.3397 80.8611C60.1473 78.8815 63.2349 72.7951 66.0672 71.649C68.6361 70.2859 75.6098 77.7267 72.8681 81.3994C69.7641 83.8652 66.059 84.499 62.5433 88.1457C61.9364 88.3406 61.2929 88.372 60.6715 88.237C60.0502 88.102 59.4708 87.8049 58.9864 87.3729ZM85.8029 62.6367C96.8193 52.539 100.409 42.0679 103.332 30.2598C109.194 30.4161 116.448 30.3814 115.476 33.264C116.481 49.8995 115.649 63.036 115.32 78.9944C115.196 84.7769 114.085 88.7882 112.496 89.2223C110.907 89.6564 100.006 89.804 88.6187 89.8301C90.0843 81.1476 89.9608 73.0643 85.8029 62.6367ZM99.7998 31.6317C99.5281 31.6317 99.2235 31.5622 98.9024 31.5014C99.4787 30.4856 100.096 29.27 100.722 27.9329C101.743 29.6521 102.542 31.8661 99.7833 31.6317H99.7998ZM81.6285 8.52769C82.2707 7.01695 83.5963 7.39897 84.642 8.75344C88.5776 12.5737 86.4451 1.68593 92.6779 1.92904C93.0794 3.57231 93.1328 5.28867 92.8343 6.95617C92.8007 7.08732 92.7968 7.22495 92.8228 7.35799C92.8489 7.49103 92.9042 7.61578 92.9843 7.72218C93.0643 7.82859 93.167 7.91369 93.284 7.97066C93.4009 8.02762 93.5289 8.05485 93.6576 8.05016C95.4855 7.26006 94.5716 3.81313 94.3904 1.85958C95.8715 1.94042 97.3387 2.20265 98.7624 2.641C99.7834 3.50924 98.0708 8.11962 99.5858 8.84026C101.463 8.54505 100.598 4.664 100.697 3.63079C106.807 8.61451 101.858 22.9926 97.1816 30.9978C90.883 29.461 80.8134 17.1754 81.6285 8.52769ZM82.1884 20.6136L83.0117 19.5544C87.2931 27.9416 93.8717 33.2205 100.911 33.3508C97.8403 43.1185 94.5715 52.3653 85.1277 60.9349C84.6749 60.0666 80.8546 50.0992 80.3523 54.9874C88.2153 69.5218 88.7752 79.1854 86.9391 89.8301H64.19C64.1583 89.6024 64.1059 89.3785 64.0335 89.1615C69.1548 83.4485 79.0844 85.4975 73.5432 74.575C66.7094 64.1561 61.8928 73.5505 56.6563 79.2462C54.1863 76.4938 50.473 73.1684 49.839 70.1469C49.6826 68.9227 53.8487 67.9763 53.2971 66.5437C53.255 66.4357 53.1927 66.3377 53.1138 66.2556C53.035 66.1736 52.9413 66.1091 52.8383 66.0662C52.7353 66.0232 52.6251 66.0026 52.5143 66.0056C52.4036 66.0086 52.2946 66.0351 52.1938 66.0836C44.4378 69.1745 50.0037 74.5576 53.8405 78.8294C48.077 80.262 44.0838 92.3566 37.3735 90.186C28.3167 77.8917 21.0794 68.5928 35.4798 57.9221C39.0361 58.9274 42.7894 58.8522 46.3068 57.705C63.1608 59.0942 74.3007 81.1476 74.3007 50.6809C82.7318 42.5194 88.4458 37.9438 83.6622 31.0065C81.8629 29.2155 80.3675 27.1129 79.2408 24.7899C80.2371 23.2357 80.9534 22.2633 82.1884 20.6136ZM32.8286 30.4422C31.7171 34.8442 32.3264 39.1941 31.7336 43.1359C31.0255 45.8188 25.9701 48.2498 28.2096 52.0527C29.3733 54.39 31.2923 56.2103 33.619 57.1841C20.2067 67.603 25.7643 77.7354 35.0434 89.7432C25.6655 88.4756 23.3931 93.7111 23.4672 79.4979C23.6154 64.5641 23.4672 51.5405 23.7224 36.4244C23.673 30.2859 27.5098 30.1904 32.8286 30.4422ZM48.2417 37.2405C49.6002 37.8917 51.1564 34.3145 54.1122 35.2609C54.2205 35.2861 54.3325 35.288 54.4415 35.2665C54.5505 35.2449 54.6542 35.2004 54.7465 35.1355C54.8388 35.0707 54.9177 34.9868 54.9784 34.889C55.0392 34.7912 55.0806 34.6814 55.1002 34.5663C55.0014 32.6388 52.1938 33.4897 50.86 33.8804C53.8652 31.7619 57.1915 29.5913 58.5994 26.2572C60.416 27.5783 62.4522 28.5268 64.6017 29.053C64.0006 29.6 61.8764 31.9616 63.8359 32.3349C65.1204 31.7706 65.9273 29.409 67.1705 29.5218C69.6406 29.7389 71.8142 29.5218 73.0822 28.6536C74.2184 28.0371 73.9878 28.6536 75.1652 31.6143C82.0237 49.5175 64.5523 58.9206 48.991 56.5069C57.8996 51.9052 36.5831 47.1993 48.0688 36.025C48.0044 36.1167 47.9577 36.221 47.9315 36.3317C47.9053 36.4425 47.9001 36.5577 47.9162 36.6706C47.9323 36.7835 47.9693 36.8919 48.0251 36.9897C48.081 37.0875 48.1546 37.1727 48.2417 37.2405ZM72.6705 52.1483C71.8471 72.2915 68.5537 63.8956 56.2858 58.6775C62.3951 58.1652 68.4796 55.7688 72.6705 52.1483ZM53.3876 15.5171C63.696 12.7821 73.7161 17.2535 78.154 26.3093C82.8882 33.8717 87.4496 34.9918 78.3351 44.4296C83.2752 37.4228 82.1472 33.8717 76.8202 27.985C74.9594 21.7424 64.8981 12.4695 57.3562 18.7469C45.9775 16.8107 37.1018 25.3803 36.7066 35.8426C36.4349 41.6772 38.2874 45.5409 35.4469 47.3208C28.9589 52.9557 42.7664 56.3245 45.6729 56.0033C40.7328 58.2173 26.4806 55.7862 30.3504 47.8331C31.803 46.7958 32.8729 45.2628 33.3803 43.4919C34.6482 32.0658 31.1078 21.751 53.3876 15.5171ZM19.2022 87.6247C18.3789 76.6762 19.0375 58.9727 18.9223 46.8172C18.7411 27.2904 16.2381 24.5728 34.8458 25.2153C34.2168 26.3131 33.698 27.4771 33.2979 28.6883C27.3287 28.1934 21.9934 28.9748 22.0263 36.3983C22.0839 51.5144 21.9193 64.5468 21.7711 79.4806C21.6805 95.4736 24.7269 90.2034 36.3114 91.5318C37.4476 92.6605 39.6048 92.6084 40.9468 91.9572C36.0068 96.3853 28.9013 94.5099 23.3766 94.2755C21.5735 93.9542 19.6797 93.6243 19.2022 87.6247ZM133.845 118.23C131.021 119.099 120.26 119.099 106.831 119.159C57.595 117.822 22.0263 119.333 7.8647 118.421C2.20829 118.065 0.454556 116.008 2.5788 112.552C6.88491 107.785 18.0248 97.0799 23.3025 96.0554C26.9109 96.512 30.5503 96.634 34.1789 96.42C31.0667 100.57 35.5786 109.122 40.6916 108.575C44.8084 108.575 46.9161 102.194 49.7484 100.648C53.8652 101.873 58.3277 99.5196 61.193 96.5503C80.3853 95.9164 97.8073 96.6631 115.847 96.0988C127.357 99.3894 144.664 113.872 133.845 118.23Z" fill="#2B0034"/>
<path d="M52.1358 108.949C52.6963 109.07 53.268 109.126 53.8401 109.114C53.3626 109.799 52.7616 111.302 54.0789 111.414C55.1081 111.293 55.3222 109.539 55.882 108.975C57.9898 108.888 60.3446 108.975 62.65 108.975C61.8266 111.38 64.4202 111.31 64.3625 109.018C71.5998 109.886 73.3453 106.7 64.8483 107.282C65.3862 105.849 66.0105 104.454 66.7173 103.105C69.2311 102.838 71.7603 102.768 74.2839 102.897C73.864 104.781 72.2832 108.106 74.2839 108.914C74.404 108.916 74.5231 108.889 74.6327 108.837C74.7422 108.785 74.8397 108.709 74.9181 108.613C74.9966 108.517 75.0542 108.404 75.0868 108.282C75.1195 108.16 75.1265 108.032 75.1072 107.907C74.9261 106.544 75.453 104.772 76.0541 102.992C78.944 103.861 80.1708 101.134 76.6469 101.256C77.8408 98.5644 75.1072 98.6512 74.9014 101.16C72.4322 101.014 69.9564 101.046 67.4913 101.256C67.6889 100.501 68.7263 98.9464 67.5571 98.4776C67.4534 98.4381 67.3433 98.421 67.2332 98.4273C67.1231 98.4336 67.0154 98.4631 66.9163 98.5141C66.8173 98.5651 66.7289 98.6366 66.6566 98.7243C66.5842 98.812 66.5293 98.9141 66.495 99.0246C66.1657 100.006 65.8693 100.761 65.5893 101.464C64.5766 101.846 62.0407 101.308 62.0489 102.984C62.3865 104.277 63.8768 103.392 64.7248 103.383C64.0518 104.605 63.5 105.897 63.0781 107.238C61.0609 107.186 59.0108 107.125 57.15 107.151C57.9733 106.387 61.7278 101.942 58.2368 103.14C57.2141 104.568 56.1145 105.934 54.9434 107.229C52.0452 107.021 50.1927 108.619 52.1358 108.949Z" fill="#2B0034"/>
<path d="M67.9277 39.4807C68.215 39.58 68.5234 39.5894 68.8156 39.5077C69.1079 39.426 69.3714 39.2568 69.5744 39.0205C71.0152 37.3969 73.0571 38.0307 74.391 36.6415C75.8977 34.2886 73.7982 31.1282 71.4681 30.6159C66.174 28.8534 62.9876 36.6763 67.9277 39.4807ZM67.2772 33.5419L67.3513 33.4551C68.3899 34.533 69.5548 35.4667 70.8176 36.2335C69.5662 36.3811 68.3476 38.8382 67.3925 36.902C66.7091 35.5736 66.6433 34.4275 67.2772 33.5419Z" fill="#2B0034"/>
<path d="M60.3697 41.2082C61.7776 41.2082 60.0156 38.7337 62.1646 38.1954C63.8113 37.7873 63.3749 40.3139 64.6346 39.8798C66.3472 39.272 64.33 35.7556 61.7117 36.4936C59.0935 37.2316 58.616 41.2082 60.3697 41.2082Z" fill="#2B0034"/>
<path d="M51.3621 45.9408C52.9017 46.2707 53.6839 44.6645 55.3388 44.5603C60.9705 43.6399 58.13 36.5985 53.5275 36.7461C48.5874 36.173 46.9571 44.9944 51.3621 45.9408ZM50.5387 40.4448C50.6876 40.126 50.8819 39.8332 51.1151 39.5766C52.3703 41.0349 53.9655 42.1214 55.7423 42.7283C53.9144 42.4939 51.6255 45.0725 50.901 43.9872C50.5232 43.4967 50.2873 42.9017 50.2216 42.2735C50.1559 41.6453 50.2631 41.0104 50.5305 40.4448H50.5387Z" fill="#2B0034"/>
<path d="M80.3193 106.014C81.966 106.135 83.7197 106.24 85.7616 106.257C85.4899 107.195 84.3208 108.949 85.8933 109.174C87.0543 108.966 87.0543 107.221 87.54 106.248C92.4801 106.821 93.7481 103.713 87.9023 104.512C88.3222 101.404 85.6299 101.186 86.2556 104.512C84.5184 104.677 77.1576 103.279 80.3193 106.014Z" fill="#2B0034"/>
<path d="M97.9636 106.24C98.9869 106.091 100.018 106.013 101.051 106.005C101.101 106.205 101.331 107.151 101.381 107.377C102.286 109.044 103.529 107.377 102.788 106.023C107.869 106.153 113.138 107.438 118.111 106.891C121.1 104.286 114.389 105.528 112.957 105.154C112.133 103.956 111.228 102.402 110.396 100.987C112.625 100.531 114.93 100.733 117.057 101.569C120.614 98.8162 111.03 98.7641 109.392 99.3198C108.881 97.4444 106.296 97.4009 107.49 99.5108C101.817 99.3979 104.526 102.228 108.535 101.195C109.268 102.428 110.034 103.756 110.791 104.955C107.992 104.668 105.168 104.295 102.352 104.234C102.122 103.366 101.907 102.697 101.315 100.883C101.243 100.662 101.09 100.48 100.891 100.377C100.692 100.275 100.462 100.26 100.253 100.336C100.043 100.412 99.8705 100.572 99.7732 100.782C99.6759 100.992 99.6618 101.235 99.7338 101.456C100.195 102.88 100.425 103.583 100.607 104.234C99.5033 104.494 97.0826 103.809 97.0085 105.484C97.0215 105.601 97.0569 105.714 97.1125 105.816C97.1682 105.918 97.243 106.008 97.3323 106.078C97.4217 106.149 97.5237 106.2 97.6322 106.227C97.7408 106.255 97.8535 106.259 97.9636 106.24Z" fill="#2B0034"/>
</svg>
