<svg width="219" height="211" viewBox="0 0 219 211" fill="none" xmlns="http://www.w3.org/2000/svg">
<path d="M36.578 57.4729C37.2969 60.1417 38.9362 62.4704 41.2061 64.0473C43.4759 65.6243 46.2303 66.3479 48.9821 66.0904C56.3833 65.3445 65.0466 63.5201 70.8987 66.4231C75.9246 68.9935 80.7324 71.231 84.76 70.8982C85.2075 56.4747 94.043 50.657 100.744 48.2015C107.445 45.7459 116.958 46.1934 123.108 48.649C141.25 47.5015 146.058 51.4144 151.611 59.3777C160.229 48.2933 162.592 27.2488 153.734 12.3318C152.059 9.41728 151.944 10.3123 149.144 10.6451C143.407 21.9361 135.283 25.5621 121.192 25.4014C105.208 25.2981 81.9487 10.7598 82.8438 14.9021C84.8633 23.7261 94.2495 43.4051 88.4319 39.3775C83.2913 35.6941 76.3606 14.9021 67.6399 11.5401C54.5588 6.39945 39.8024 7.17973 28.0639 9.24516C27.5645 9.31608 27.0861 9.49308 26.6607 9.76425C26.2354 10.0354 25.8731 10.3945 25.5981 10.8173C25.3231 11.2402 25.1418 11.717 25.0664 12.2157C24.9909 12.7144 25.0231 13.2235 25.1608 13.7088C27.536 23.3819 33.4455 45.4017 36.578 57.4729Z" fill="#9B7EBD"/>
<path d="M196.661 70.898C202.146 64.3001 203.546 60.2725 210.752 71.2308C208.847 70.3357 207.309 69.6587 206.495 70.003C204.865 70.7029 204.062 73.7207 203.144 72.7913C202.697 72.4585 202.146 72.011 201.802 71.793C199.908 70.1062 200.803 75.0289 203.924 75.3616C204.934 75.4764 205.944 74.2142 206.839 72.6766C207.287 72.011 207.608 72.1372 208.067 72.3438C210.052 73.2847 212.989 74.6961 213.207 71.793C213.425 68.8899 206.61 63.0723 206.059 62.6133C204.154 61.2708 201.698 61.3855 199.461 63.8411C198.233 65.1836 193.528 70.5423 193.31 71.4373C193.081 73.0208 194.205 73.9158 196.661 70.898Z" fill="#1C0034"/>
<path d="M164.016 71.7926C165.473 71.5631 167.642 68.8092 169.753 66.5372C170.556 65.6537 172.438 65.3898 173.448 65.1947C174.664 64.9423 174.446 65.6422 174.446 66.0897C174.446 72.9745 177.544 71.7238 182.834 67.088C184.406 65.7914 184.464 70.2206 187.194 70.5304C189.203 70.7599 193.115 66.5143 192.002 65.5045C190.66 64.162 189.271 68.5109 187.413 68.3043C186.265 68.1896 185.726 64.7243 184.05 64.3915C182.157 64.0473 179.92 66.6176 177.682 68.0749C175.444 69.5321 179.013 60.7885 172.759 63.049C176.672 59.0214 182.754 50.8285 186.621 54.2135C190.488 57.5985 194.779 64.2194 196.569 64.0473C198.027 63.8292 196.237 62.0392 195.123 60.6049C186.965 50.4384 185.06 47.9828 176.121 56.1413C174.974 57.1395 171.979 60.7311 169.076 63.8522C164.693 68.6601 161.56 72.1713 164.016 71.7926Z" fill="#1C0034"/>
<path d="M46.5263 147.8C43.2675 145.138 42.0856 145.723 39.9284 148.695C39.6071 149.154 39.3662 149.487 38.5859 148.925C37.8056 148.362 36.6926 147.582 36.291 148.362C35.8893 149.143 38.1843 151.495 39.5268 151.61C41.6611 151.61 42.0512 147.892 43.6691 148.695C45.9641 149.935 50.0376 152.608 50.3703 149.59C50.7031 146.572 42.2233 138.965 41.6496 138.529C37.4843 135.362 33.4682 143.486 30.0258 147.708C29.1308 148.856 30.7028 150.279 32.7109 147.812C36.6811 142.935 38.4482 139.102 40.3071 140.33C41.5463 141.111 45.0117 144.92 47.0197 147.364C48.1902 148.81 46.8591 147.904 46.5263 147.8Z" fill="#1C0034"/>
<path d="M103.269 132.046C102.577 131.94 101.87 132.102 101.294 132.499C100.717 132.897 100.314 133.499 100.168 134.184C100.021 134.869 100.142 135.584 100.505 136.182C100.868 136.781 101.446 137.218 102.122 137.405C106.333 138.529 107.113 132.494 103.269 132.046Z" fill="#1C0034"/>
<path d="M14.3293 140.766C15.6719 149.82 19.5847 145.46 23.1648 140.089C24.1861 138.735 25.7581 142.591 27.0777 141.662C28.2251 140.766 25.0581 136.957 22.9353 137.519C20.8125 138.081 17.0144 145.609 17.0144 142.442C16.4521 139.871 16.1194 138.081 15.1096 137.749C13.8818 137.301 11.0935 139.309 10.646 139.194C10.1985 139.08 10.0837 138.747 9.85423 138.299C13.7671 134.283 17.5767 128.913 21.26 129.246C24.9434 129.579 30.9217 141.283 33.4461 140.089C34.3526 139.665 32.9986 137.852 31.656 136.406C26.8482 131.036 24.7713 127.169 21.1453 126.905C15.2473 126.458 7.07737 139.068 0.353238 145.792C-0.197544 146.469 -0.197545 147.468 1.03024 147.353C2.92356 147.02 4.94309 144.232 8.17894 140.089C9.3264 142.327 11.6213 141.432 13.3196 140.204C14.3293 139.757 14.3293 140.319 14.3293 140.766Z" fill="#1C0034"/>
<path d="M41.6047 55.9125C40.0327 52.1029 34.2036 26.4227 31.2775 16.8988C29.3728 10.6337 27.4794 11.4254 27.927 12.8712C27.927 12.9974 38.4033 53.0324 38.4377 53.1242C39.8147 57.473 42.167 57.255 41.6047 55.9125Z" fill="#1C0034"/>
<path d="M180.23 205.828C170.499 196.992 170.281 195.317 160.723 195.432C163.626 193.814 156.03 176.499 152.782 151.495C160.275 141.547 164.521 133.136 163.522 122.992C180.402 113.927 184.647 89.0046 170.671 80.6167C169.661 80.1692 168.663 80.7314 168.778 82.292C169.225 86.9966 162.731 87.3293 159.942 84.1967C155.697 79.5036 159.265 69.8879 153.058 59.7099C159.874 51.999 161.778 38.0229 160.321 26.7319C158.76 14.5459 151.382 3.15158 147.24 10.8625C143.889 17.2309 135.834 21.1897 124.773 20.593C116.74 20.2487 109.351 17.3457 101.078 13.2033C73.2056 -0.566197 53.0676 1.72873 27.5136 3.03683C27.0661 0.237026 25.3908 -0.0957378 22.1435 0.0190083C19.5732 0.133754 18.0126 1.02877 19.2404 5.04489C18.093 6.46774 17.6455 5.92843 26.5039 36.1296C30.3708 49.291 31.874 60.3869 35.3393 66.0898C36.5671 70.8977 37.7949 75.7055 39.1374 80.5019C33.5493 86.549 37.1294 108.121 46.0222 108.041C54.6282 141.134 61.5589 169.866 63.2342 176.797C56.1888 177.348 51.5874 178.105 49.9236 179.367C47.3189 181.341 37.1868 195.799 34.9492 196.361C33.2739 196.809 26.676 195.133 24.1057 196.017C20.4108 197.256 11.9196 205.747 11.4836 207.308C11.2541 208.203 12.1491 209.66 14.926 207.09C22.4189 200.377 23.1992 199.597 24.8745 198.817C26.5498 198.036 32.7002 200.159 35.6033 199.379C37.8982 198.817 39.5161 196.132 46.2288 187.904C48.5237 185.116 50.9219 182.098 51.5874 181.536C53.0447 180.308 62.9932 179.631 66.2405 179.413C75.4202 178.736 72.609 180.859 76.6366 186.114C78.9315 189.258 80.8707 188.581 108.157 188.581C112.632 188.581 114.078 197.968 122.133 198.415C126.494 198.645 149.673 198.553 154.262 198.415C165.553 198.082 167.011 198.977 170.327 201.215C173.643 203.452 182.513 213.057 183.741 210.601C184.475 209.511 182.915 208.168 180.23 205.828ZM160.895 127.249C160.218 134.96 155.972 143.566 148.594 152.172C145.152 146.137 136.523 138.403 130.039 134.846C134.48 128.741 137.234 126.481 135.065 124.117C133.918 122.889 131.933 120.881 130.476 121.099C129.684 121.214 129.799 122.247 130.246 122.774C131.026 123.922 133.379 125.677 132.598 126.802C130.964 129.162 129.21 131.437 127.343 133.618C120.745 131.725 115.604 136.75 118.622 142.901C117.706 144.241 117.09 145.764 116.819 147.364C116.548 148.965 116.626 150.605 117.05 152.172C109.018 153.32 80.7215 146.366 83.2918 138.873C84.5196 135.293 88.7193 131.277 88.7767 128.03C88.9488 117.863 80.5723 120.342 90.67 107.238C91.51 107.53 92.3338 107.868 93.1371 108.248C92.5748 109.923 90.8421 111.392 91.8978 113.606C92.8731 115.637 97.3827 117.967 98.6105 116.968C100.286 115.626 95.0304 114.501 94.3649 112.378C94.3649 110.921 96.6598 109.143 95.7074 107.353C93.8026 103.91 84.0721 105.115 91.565 98.4023C93.6312 100.278 95.9483 101.858 98.4498 103.095C98.5531 125.012 119.242 134.077 101.8 143.899C100.228 144.794 102.351 146.814 106.161 144.347C114.193 139.103 112.862 133.056 106.379 121.765C110.624 118.322 115.88 113.159 118.45 107.685C121.857 107.816 125.268 107.589 128.628 107.008C130.544 114.283 122.971 110.313 120.688 113.159C119.345 114.834 120.137 116.521 119.46 117.301C118.565 118.529 112.977 118.644 112.414 120.652C111.852 122.66 118.794 120.984 120.584 119.757C123.751 117.852 121.411 114.662 123.487 114.616C130.533 114.444 133.103 112.826 131.198 106.343C135.116 105.297 138.697 103.257 141.594 100.422C151.382 105.769 161.893 115.947 160.895 127.249ZM132.208 156.2C130.98 155.752 130.636 156.98 127.4 160.893C125.631 159.723 124.016 158.335 122.592 156.762C124.601 155.087 127.515 151.507 126.173 150.394C124.52 148.971 124.279 151.541 121.02 154.525C116.89 147.709 122.707 144.461 121.135 141.776C120.711 141.123 120.494 140.357 120.515 139.578C120.535 138.8 120.792 138.046 121.25 137.416C128.066 131.679 143.947 149.384 146.62 154.41C139.139 162.35 133.654 163.016 130.085 162.018C132.495 159.206 133.505 156.636 132.162 156.188L132.208 156.2ZM89.7521 96.2795C89.4256 96.5484 89.1259 96.8481 88.857 97.1745C86.0572 97.622 79.2413 99.1826 77.4512 98.8498C73.1024 95.8091 66.2979 81.5576 60.5721 80.4101C56.7928 77.167 52.0208 75.3092 47.0435 75.1433C46.3665 72.6762 45.7009 70.1059 45.0239 67.6504C76.3267 62.395 63.0276 69.3257 83.2574 71.7927C83.2211 74.9589 84.0122 78.0796 85.5523 80.8462C85.2081 85.0918 84.1983 88.3276 89.6832 96.268L89.7521 96.2795ZM99.4711 79.9626C99.8038 82.0854 100.619 83.5427 101.766 83.3132C104.336 82.9804 100.825 78.0005 103.109 76.153C103.792 75.6104 104.64 75.315 105.512 75.315C106.385 75.315 107.233 75.6104 107.916 76.153C108.582 76.612 109.477 76.6006 109.706 75.935C110.257 74.2597 107.802 72.9172 106.459 72.6877C107.469 67.3291 102.776 64.1965 97.2794 64.1965C100.297 62.2917 104.164 65.0915 105.553 65.0915C107.905 65.0915 107.228 62.5212 104.325 61.7409C109.362 61.6262 114.721 61.8442 117.521 60.8459C117.53 61.5184 117.735 62.1735 118.113 62.7303C118.49 63.2871 119.022 63.721 119.643 63.9785C115.054 64.426 115.616 67.6618 117.349 67.2143C122.937 64.7588 133.78 70.3469 135.019 75.8203C136.351 81.6379 144.52 82.5329 144.073 89.3488C142.776 106.125 118.53 107.984 102.707 101.971C91.8634 97.6106 84.1524 88.2014 90.3028 77.7136C95.7877 77.3579 98.84 79.9511 99.4022 79.9511L99.4711 79.9626ZM97.3483 66.9963C101.709 67.2143 104.612 69.0044 103.613 72.9172C102.645 73.1702 101.761 73.6767 101.053 74.3846C100.345 75.0924 99.8388 75.9762 99.5858 76.9448C99.0506 76.6344 98.4902 76.3695 97.9105 76.153C97.9344 73.0854 97.7234 70.0203 97.2794 66.9848L97.3483 66.9963ZM102.122 110.038C101.677 108.151 101.378 106.233 101.227 104.3C105.809 105.93 110.578 106.979 115.421 107.421C114.455 109.182 113.301 110.833 111.978 112.344C110.154 106.836 105.667 105.448 102.122 110.038ZM109.833 114.627C108.357 116.174 106.79 117.63 105.14 118.988C104.288 117.231 103.615 115.394 103.131 113.503C103.54 112.748 104.024 112.036 104.577 111.38C104.803 111.718 105.099 112.003 105.444 112.217C105.789 112.432 106.176 112.57 106.579 112.623C106.982 112.676 107.391 112.643 107.78 112.526C108.169 112.408 108.528 112.209 108.834 111.942C109.237 112.805 109.56 113.705 109.798 114.627H109.833ZM55.8445 80.5249C54.8601 80.8584 53.9999 81.4826 53.3775 82.3149C51.4842 80.02 48.5696 79.7446 47.9041 78.0693C50.683 78.3057 53.379 79.1352 55.8101 80.5019L55.8445 80.5249ZM55.2823 84.5525C58.8623 79.2971 63.6702 85.5622 67.3536 90.7029C64.645 94.9514 61.0617 98.5738 56.8428 101.328C57.5244 98.9669 57.7539 96.4987 57.5198 94.0534C59.0804 94.0534 62.4883 92.1372 61.8802 89.9226C61.5704 88.7751 60.7327 89.3603 60.2049 89.9226C55.6953 93.9731 52.5628 88.3276 55.2478 84.5295L55.2823 84.5525ZM69.0518 93.0552C75.7645 102.774 76.0972 102.556 86.3785 100.433C85.9075 101.405 85.8183 102.519 86.1285 103.553C86.4387 104.588 87.1257 105.469 88.0538 106.021C75.8563 121.099 89.2013 121.352 84.9327 130.497C77.2103 134.972 68.8682 132.62 60.6753 125.471C58.9886 118.988 57.0952 112.172 55.3052 105.344C60.7682 102.367 65.4569 98.1502 68.9944 93.0322L69.0518 93.0552ZM154.905 76.1416C155.146 79.9511 155.582 83.187 157.923 85.872C162.065 90.6799 169.891 89.7849 171.566 84.4148C178.612 92.5847 179.174 109.567 162.96 120.193C160.952 113.044 155.249 104.874 143.729 98.1728C148.571 91.9421 148.594 85.218 141.606 79.5036C135.054 74.2597 139.483 71.2075 128.984 65.8603C123.063 63.072 121.606 62.0622 121.158 60.8344C120.378 58.7116 123.063 57.1396 122.306 55.6938C122.228 55.5446 122.113 55.4179 121.971 55.3259C121.83 55.2338 121.668 55.1796 121.5 55.1683C121.332 55.1572 121.164 55.1891 121.012 55.261C120.86 55.3329 120.728 55.4423 120.63 55.5791C113.677 63.8637 99.9759 51.9301 90.5553 68.3274C89.098 71.6779 89.5455 74.4663 87.308 77.3808C85.013 71.2304 86.4129 62.177 93.0453 55.0168C101.318 45.8371 114.962 47.0764 123.568 49.4287C124.763 49.7718 126.013 49.8847 127.251 49.7614C144.716 47.8452 153.918 61.4082 154.905 76.1416ZM21.7993 2.35983C23.0271 2.14181 24.5876 2.02706 24.5876 3.25485L21.6845 3.59909C21.5927 3.3237 21.26 2.47458 21.7993 2.35983ZM35.9934 61.3967C33.0903 50.5417 25.0351 21.029 22.0173 9.51999C21.5698 7.95944 21.1223 6.50216 24.2548 6.1694C37.4507 4.82687 57.5313 3.8171 70.6468 5.82516C93.5961 9.26754 105.312 22.0388 124.646 23.2666C136.947 24.0583 146.115 19.4685 149.799 11.8723C150.476 10.5298 150.694 10.7248 151.589 11.6428C160.872 22.165 159.621 45.0339 151.359 56.9216C139.139 42.1767 131.175 49.0156 121.296 46.2961C103.086 40.8686 84.8983 50.2778 83.4295 68.9929C73.9285 68.0979 74.4908 65.9751 68.6732 63.8523C59.1492 60.4902 38.2768 69.2912 36.0163 61.3967H35.9934ZM45.6091 105.103C40.5833 104.208 38.908 93.6977 39.2407 87.0998C39.6882 80.7314 45.0469 82.969 44.4961 81.0642C44.1519 79.9167 43.0388 79.6184 41.6963 79.8364L38.3457 67.0881C39.6358 67.3637 40.9431 67.5515 42.2585 67.6504C44.4961 75.2466 44.8403 80.1233 48.0647 81.7412C49.6838 82.5188 51.072 83.7053 52.0923 85.1836C51.559 87.0952 51.6393 89.1261 52.3218 90.9897C50.7498 91.2192 47.5139 90.4389 47.7319 91.9995C47.8722 92.402 48.1274 92.7546 48.466 93.0136C48.8045 93.2726 49.2115 93.4267 49.6367 93.4568C51.3028 93.6789 52.9818 93.79 54.6626 93.7895C54.8003 95.4258 54.7625 97.0713 54.5479 98.7007C52.8022 98.8786 51.0413 98.8439 49.304 98.5974C47.5139 98.3679 48.0647 101.282 51.0825 101.615C51.9385 101.673 52.7968 101.673 53.6529 101.615C52.3447 104.874 49.2122 105.769 45.6321 105.103H45.6091ZM65.8389 176.43C64.3931 170.497 57.4624 141.662 48.7417 108.007C50.123 107.903 51.4619 107.483 52.6546 106.779C61.0425 138.082 68.8567 168.156 70.8763 175.982C69.2156 176.234 67.541 176.384 65.8619 176.43H65.8389ZM76.8775 179C76.6241 178.365 76.2319 177.794 75.7296 177.329C75.2274 176.865 74.6277 176.518 73.9744 176.315C72.7467 171.725 67.9388 152.838 61.7884 129.808C68.8338 134.834 75.2022 137.301 82.6952 134.398C80.4002 137.645 78.5528 141.558 82.5804 144.725C73.8597 155.787 76.5447 162.155 82.0182 174.686C80.515 175.982 78.1627 177.428 76.8775 179ZM110.085 185.368C103.258 185.483 88.7308 185.483 82.2476 185.368C79.9527 185.368 78.1053 184.221 78.4495 181.788C78.897 179.998 82.3624 178.105 83.8082 176.762C95.6615 178.656 114.216 181.788 115.673 183.246C115.054 185.931 112.713 185.139 110.028 185.368H110.085ZM116.121 190.509C115.433 189.64 114.685 188.819 113.883 188.053C124.612 186.034 112.873 172.287 116.178 167.812C118.473 175.638 120.309 179.78 122.214 184.691C120.194 186.378 117.176 188.065 116.063 190.509H116.121ZM157.923 193.86C153.459 197.302 134.228 195.202 122.271 195.432C119.976 195.432 118.014 194.204 118.462 191.852C118.909 190.062 122.604 188.053 123.946 186.596C129.11 187.48 159.851 191.897 157.865 193.86H157.923ZM124.841 183.911C122.547 177.657 120.47 171.668 117.119 160.882C116.167 157.795 113.677 159.505 115.226 164.691C109.97 168.26 114.078 174.295 115.226 180.113C112.323 178.656 96.109 176.085 84.7032 174.192C80.2281 162.901 75.9825 157.198 84.7032 146.355C95.214 153.171 109.752 155.179 117.98 154.961C125.92 169.155 139.896 167.709 150.407 154.295C151.749 166.917 155.662 178.885 158.439 190.624C152.059 187.87 136.614 186.137 124.784 183.911H124.841Z" fill="#1C0034"/>
<path d="M217.12 139.756C214.286 136.234 210.304 133.491 208.181 132.872C204.533 131.805 201.492 136.762 189.73 151.093C187.435 148.741 181.79 143.6 179.001 143.6C175.421 143.6 157.314 160.927 163.912 161.822C165.588 162.052 170.614 157.129 172.736 156.234C171.727 161.971 177.693 160.422 181.239 156.682C183.029 154.777 182.386 152.631 181.342 153.549C178.611 155.844 175.605 157.806 174.859 157.691C176.007 150.875 170.051 154.777 165.679 158.357C168.594 154.226 177.085 145.838 179.105 145.735C180.551 145.735 184.911 149.177 188.376 152.62C187.034 155.087 187.676 157.072 189.271 155.087C190.866 153.101 191.566 152.287 194.079 149.051C197.097 147.146 199.897 145.804 200.677 146.136C201.457 146.469 202.02 151.277 204.257 151.392C205.703 151.506 207.275 149.097 209.168 145.804C209.398 145.471 209.731 144.909 210.316 145.586C211.463 146.917 212.771 147.881 213.666 147.364C216.466 145.689 215.468 143.245 214.676 143.796C214.311 144.061 213.973 144.36 213.666 144.691C212.702 145.654 211.509 142.568 209.535 142.568C206.862 142.728 204.946 150.6 204.051 148.156C202.467 143.623 201.584 142.671 197.166 145.023C201.079 140.778 204.992 134.696 207.344 134.696C209.134 134.696 213.494 138.494 216.524 142.292C217.453 144.117 219.071 142.166 217.12 139.756Z" fill="#1C0034"/>
<path d="M102.753 91.5751C103.666 92.2377 104.784 92.5562 105.909 92.4743C107.035 92.3924 108.095 91.9154 108.903 91.1276C110.475 93.4799 118.851 93.0324 118.851 89.6704C118.851 88.8901 118.186 88.4426 117.176 89.0048C116.309 89.5181 115.339 89.8345 114.336 89.9316C113.332 90.0288 112.32 89.9043 111.37 89.5671C110.027 89.0048 110.578 86.882 108.903 86.7673C107.228 86.6525 107.457 89.2228 106.218 89.5671C105.862 89.6778 105.484 89.7044 105.116 89.6446C104.748 89.5849 104.398 89.4405 104.095 89.2229C102.42 87.8803 100.63 89.6704 102.753 91.5751Z" fill="#1C0034"/>
<path d="M112.266 95.936C110.601 96.1062 108.93 95.6703 107.561 94.7082C106.218 93.4804 105.025 95.5688 106.895 97.2785C109.282 99.4702 113.161 98.8391 113.711 97.1638C114.044 96.3835 113.046 95.936 112.266 95.936Z" fill="#1C0034"/>
<path d="M117.176 82.9689C124.061 82.2919 126.792 86.2047 130.257 82.9689C138.289 75.3727 127.09 64.4948 116.281 69.6583C111.301 72.1713 110.475 83.6459 117.176 82.9689ZM126.011 71.7926C130.486 72.7909 131.037 78.8265 128.306 80.9723C127.079 81.9821 125.736 80.4215 123.843 80.3068C123.51 77.2889 123.062 74.0416 122.5 71.2533C123.691 71.2602 124.874 71.4426 126.011 71.7926Z" fill="#1C0034"/>
<path d="M106 85.9405C107.561 85.3783 108.456 84.7128 110.693 85.6078C112.369 86.1586 112.988 83.8177 111.141 82.9227C110.14 82.4646 109.036 82.2755 107.939 82.3741C106.843 82.4727 105.791 82.8556 104.887 83.485C103.43 84.7931 104.095 86.652 106 85.9405Z" fill="#1C0034"/>
</svg>
