<svg width="153" height="144" viewBox="0 0 153 144" fill="none" xmlns="http://www.w3.org/2000/svg">
<path d="M62.8832 28.5893C53.489 34.9109 63.8547 48.7493 73.3943 41.3693C82.5666 34.2053 71.5353 22.9085 62.8832 28.5893Z" fill="#9B7EBD"/>
<path d="M100.613 74.3525C99.6608 74.0494 98.6216 74.0983 97.7061 74.4893C98.5247 73.7189 100.468 71.1197 98.3028 71.5445C97.1859 71.7533 97.2624 73.2293 96.9641 74.1437C96.5892 73.2293 96.4362 71.5589 95.6177 71.5445C93.9041 71.5085 94.8527 73.6469 96.1455 74.4893C94.2789 73.7189 92.244 74.4389 93.3839 75.5477C93.7511 75.9005 95.2505 75.6125 96.2144 75.4037C94.5773 76.3901 93.9194 78.8453 95.6942 78.3485C96.2144 78.2117 96.7346 76.6709 97.0329 75.8285C97.3313 76.6709 97.8591 78.2117 98.3793 78.3485C99.9476 78.7733 99.5727 76.8077 97.8591 75.4037C99.3509 75.9653 102.334 75.6773 100.613 74.3525Z" fill="#9B7EBD"/>
<path d="M87.9754 65.9284C87.3593 65.6189 86.6567 65.4957 85.9635 65.5756C86.7285 65.23 88.5722 63.826 86.8586 63.682C86.3384 63.6172 85.8182 64.2436 85.3286 65.23C85.2521 64.5964 85.4051 63.3364 84.8084 63.1924C83.6915 62.9116 83.9133 64.3876 84.6554 65.2948C82.3604 63.6892 80.7385 66.2092 84.5865 65.9284C83.3166 66.2812 82.4216 67.966 83.6915 67.822C84.1352 67.822 84.7318 67.102 85.1067 66.382C85.1832 67.0084 85.252 68.1388 85.6269 68.3476C86.5831 68.8588 86.6749 67.5052 85.7799 66.238C87.0421 66.9796 88.8858 67.21 87.9754 65.9284Z" fill="#9B7EBD"/>
<path d="M68.1768 81.3726C67.3583 80.9478 66.4632 81.999 65.5682 82.4238C66.0884 81.4374 66.9069 79.335 65.048 79.6158C64.2294 79.7526 64.6731 81.5094 64.6731 82.4238C63.9999 81.7038 63.2579 80.2638 62.4393 80.5302C60.4197 81.3726 62.883 82.5606 63.9693 82.9854C62.6229 83.1222 59.8077 83.8638 61.7279 84.879C62.6306 85.3542 63.518 84.3174 64.3365 83.8278C63.3726 85.3038 63.3726 87.759 65.0097 86.4918C65.4534 86.1462 65.3081 84.807 65.3081 83.9646C65.9048 84.6846 66.5703 85.9878 67.473 85.7934C69.2555 85.4046 67.1747 83.8278 65.943 83.3382C67.0599 83.1942 69.7451 82.215 68.1768 81.3726Z" fill="#9B7EBD"/>
<path d="M72.2087 64.1571C73.471 63.9483 72.2776 62.9691 70.8623 62.9691C71.5355 62.6883 73.0273 61.4931 71.8339 61.4211C71.5355 61.4211 70.9388 61.7019 70.4875 62.5443C70.6405 61.8243 70.564 60.2979 69.5924 60.9315C69.2252 61.2123 69.6689 62.0547 69.9673 62.6883C69.0722 62.0547 68.4373 61.8459 68.1772 61.9683C67.2056 62.3211 68.1772 63.1635 69.5924 63.1635C68.399 63.4443 67.5805 64.6035 68.6285 64.7043C68.9957 64.7763 69.5924 63.9843 70.0438 63.5883C69.8219 64.9203 70.1891 65.8995 70.9388 65.2011C71.1607 64.9851 70.7858 64.0059 70.6405 63.4443C71.1454 63.7539 71.8339 64.2435 72.2087 64.1571Z" fill="#9B7EBD"/>
<path d="M95.6939 28.3808C93.5289 28.1 91.3716 32.1752 91.1421 33.3632C90.5934 35.7305 90.9939 38.2051 92.2667 40.3112C92.8022 41.1464 93.9803 40.1024 93.5289 39.332C91.9989 36.8048 91.8918 32.8016 94.577 30.3464C94.424 31.8944 95.5485 33.1544 96.5889 32.8736C96.9638 32.7368 96.9638 32.384 96.7343 32.1032C95.495 30.5408 96.5277 28.3808 95.6939 28.3808Z" fill="#9B7EBD"/>
<path d="M106.282 24.8021C107.926 24.9461 110.107 23.3621 110.611 21.7853C111.728 18.1349 106.35 17.4149 105.463 20.9429C105.307 21.8231 105.233 22.7145 105.241 23.6069C103.895 26.4149 102.105 28.0349 102.181 29.8565C102.358 30.529 102.738 31.139 103.275 31.6133C106.48 34.9829 105.96 42.8381 99.1747 42.3485C98.9777 42.334 98.7824 42.3919 98.6298 42.51C98.4772 42.6282 98.3791 42.7973 98.3562 42.9821C98.4327 43.8245 99.2513 43.8245 99.8862 43.8245C106.817 43.7525 108.538 35.2565 104.43 30.7709C102.793 28.9349 103.757 29.5469 106.282 24.8021ZM108.148 19.8917C110.535 20.0573 108.523 23.1893 106.733 23.2613C106.656 22.2029 106.809 19.7981 108.148 19.8917Z" fill="#9B7EBD"/>
<path d="M80.5547 62.6307C80.111 62.2779 79.3613 62.8395 78.7646 63.0555C79.2159 62.4939 79.8891 60.8955 78.7646 61.2267C78.099 61.4355 78.3209 62.4219 78.2444 62.9835C77.8695 62.4939 77.4794 61.5075 77.051 61.5435C75.6357 61.6803 77.051 62.7387 77.7242 63.1563C76.9056 63.0843 75.4292 63.6459 76.0794 64.1355C76.5308 64.4235 77.2728 63.9267 77.8695 63.7179C77.3493 64.3515 76.7526 65.6835 77.8695 65.5395C78.2444 65.4747 78.3209 64.4235 78.3974 63.8619C78.6957 64.3515 79.2159 65.2587 79.5908 65.2587C80.4782 65.1939 80.0345 64.2075 78.9176 63.5811C79.6596 63.6819 81.4497 63.3363 80.5547 62.6307Z" fill="#9B7EBD"/>
<path d="M92.8639 87.1252C91.594 84.2452 88.7559 84.4612 84.8085 86.5636C83.6151 83.266 78.8415 73.1572 72.7291 70.5652C72.2089 70.2844 71.5357 70.63 71.0844 70.9828C70.4877 71.4724 67.0987 75.1948 67.0605 76.9516C67.0814 77.1994 67.1766 77.4365 67.335 77.6353C67.4935 77.8342 67.7087 77.9866 67.9555 78.0748C71.4898 79.63 73.3947 81.2284 77.1355 90.142C72.0636 92.5324 65.6605 95.4772 60.3591 97.9324C56.6259 91.8268 52.9768 80.8108 63.5644 78.7732C63.7312 78.7547 63.8914 78.7011 64.0331 78.6164C64.1748 78.5316 64.2944 78.4179 64.383 78.2836C65.7982 76.4548 66.1731 74.7412 63.8628 74.6836C63.1896 74.6836 64.2147 73.6036 66.3949 71.314C66.8539 70.8316 67.29 70.1188 65.7982 70.1188C55.1341 69.91 48.7234 78.6796 47.9814 84.1588C47.3847 88.6444 48.4251 93.6268 52.9768 101.489C49.0218 103.318 46.4896 104.369 48.8764 108.79C50.5135 112.088 53.7954 119.741 57.0772 123.528C62.371 129.634 74.152 135.768 87.5013 128.511C102.182 120.605 103.895 106.076 92.8639 87.1252Z" fill="#9B7EBD"/>
<path d="M99.2746 41.6501C98.6014 39.6125 97.8593 37.7189 96.9796 36.6605C94.7381 34.0829 92.795 35.7749 94.2179 36.3149C95.6408 36.8549 96.6812 38.4173 97.8746 41.9309C99.068 45.4445 101.822 55.3301 102.717 58.8437C103.91 63.1637 103.612 65.0141 99.5882 66.4181C97.7981 67.0517 87.287 70.0181 83.2555 70.8461C81.7637 71.1197 82.4905 72.4589 84.6019 71.9621C103.727 67.4693 106.42 66.9221 104.362 59.0021C103.375 55.2653 101.746 49.5053 99.2746 41.6501Z" fill="#2B0034"/>
<path d="M33.209 68.1747C34.6778 64.0131 35.504 64.8627 43.2687 64.5747C45.3572 64.5027 45.732 63.2787 44.0337 63.3147C35.6187 63.4875 33.5915 62.4795 31.7325 67.7355C30.9063 69.9819 24.947 97.7019 24.4191 101.072C23.8913 104.441 25.842 106.054 29.4146 106.054H41.6546C43.2917 106.054 43.0698 104.65 40.1628 104.65H29.3304C26.6453 104.65 25.3754 103.808 25.7502 101.28C26.4923 97.9324 32.3828 70.3491 33.209 68.1747Z" fill="#2B0034"/>
<path d="M13.9692 125.235C22.6137 125.588 44.837 125.955 46.9254 125.869C51.1023 125.797 50.7504 124.429 48.3407 124.393C44.9135 124.321 16.7232 123.968 12.3857 123.831C10.7103 123.759 10.8327 125.091 13.9692 125.235Z" fill="#2B0034"/>
<path d="M86.3004 56.2369C84.3573 56.6617 75.4144 58.9009 73.6243 59.4625C71.8342 60.0241 72.2779 61.1473 74.8866 60.5209C85.8643 57.7849 89.6358 56.1361 90.9516 58.9009C91.3264 60.0241 90.8751 61.5001 89.085 62.5009C88.4959 62.7817 88.7866 63.7609 90.133 63.2209C94.2793 61.4281 92.9559 54.9625 86.3004 56.2369Z" fill="#2B0034"/>
<path d="M83.4618 36.3148C82.0466 36.8044 81.8247 38.2804 83.0181 37.9276C84.2115 37.5748 86.0781 37.1572 88.0901 36.7324C89.5589 36.4588 89.8878 34.2988 83.4618 36.3148Z" fill="#2B0034"/>
<path d="M67.8789 55.7548C69.1488 55.8268 70.1739 54.142 71.0154 53.2276C72.8208 54.6676 74.9781 54.8044 75.5595 52.594C76.6305 53.17 78.3135 52.9324 78.4665 51.874C79.5452 52.162 80.7615 51.9316 81.0752 50.9596C83.6915 51.6796 84.9537 48.922 83.0948 49.6276C81.6719 50.182 80.1725 48.6844 79.6599 50.6068C78.5048 50.3692 77.1278 50.3332 77.1278 51.4492C76.3628 51.3124 75.2612 50.8156 74.741 51.1684C74.1443 51.658 74.5191 52.6444 73.7694 52.7812C73.0197 52.918 71.7575 51.5212 70.8624 51.658C69.9674 51.7948 68.8505 54.1204 68.1773 54.2572C67.5041 54.394 67.3205 53.3572 66.5555 53.7892C65.6451 54.2068 66.609 55.6828 67.8789 55.7548Z" fill="#2B0034"/>
<path d="M109.938 116.602C109.487 117.581 110.382 118.042 111.652 116.53C113.182 116.53 119.302 116.458 120.603 116.458C121.903 116.458 120.526 115.09 118.438 115.126C116.349 115.162 114.483 115.198 112.624 115.198C112.86 114.859 113.115 114.532 113.389 114.219C114.665 114.281 115.946 114.232 117.214 114.075C118.705 113.866 118.629 113.023 116.617 112.879C115.899 112.823 115.179 112.802 114.46 112.815C115.225 111.476 114.161 110.986 112.669 112.815C109.831 112.88 109.235 113.657 109.464 113.938C109.694 114.219 111.254 114.219 111.621 114.219C111.39 114.561 111.135 114.888 110.856 115.198C108.959 115.003 107.139 116.307 109.938 116.602Z" fill="#2B0034"/>
<path d="M123.732 106.004C127.389 106.004 129.324 104.391 128.727 101.021C128.131 97.6516 122.24 69.9316 121.422 67.6852C119.387 62.2348 117.642 63.3652 107.774 63.3652C105.984 63.3652 107.476 64.6324 109.488 64.6324C118.277 64.6324 118.713 64.2796 120.075 68.1388C120.901 70.3852 126.792 97.8964 127.312 101.259C127.756 103.786 126.493 104.628 123.732 104.628H111.431C108.669 104.628 108.149 106.068 110.237 106.032C112.326 105.996 119.93 106.004 123.732 106.004Z" fill="#2B0034"/>
<path d="M107.399 118.704C105.762 118.704 105.387 120.044 109.64 120.044C113.894 120.044 130.219 120.252 132.759 118.704C133.799 118.078 132.904 116.602 131.412 115.479C128.429 113.232 128.222 114.55 129.117 115.27C130.012 115.99 132.024 117.372 130.907 117.725C128.054 118.776 113.741 118.776 107.399 118.704Z" fill="#2B0034"/>
<path d="M103.895 124.465C101.96 124.529 103.13 125.653 105.012 125.797C107.399 125.933 137.303 125.588 139.988 125.307C142.673 125.026 142.673 123.867 141.036 123.831L103.895 124.465Z" fill="#2B0034"/>
<path d="M89.5818 42.2115C90.0255 42.4203 92.0375 41.8587 92.4888 42.0675C92.9402 42.2763 93.7587 43.9755 94.2789 43.8243C94.7991 43.6731 94.5008 41.7147 94.7991 41.2971C95.0975 40.8795 96.6657 40.5267 96.4362 39.8571C96.2909 39.5043 94.9521 39.2955 94.7226 39.0147C94.0571 36.9051 93.9041 37.3299 93.009 38.1003C93.1789 38.5337 93.3778 38.9571 93.6057 39.3675C94.1259 40.1379 92.9325 41.1891 92.3358 40.3467C92.033 39.8823 91.7597 39.4015 91.5173 38.9067C90.8441 38.9067 89.8802 38.7699 89.5818 39.0507C89.207 39.4683 90.6987 40.2459 90.6987 40.5915C90.6987 40.9371 89.1305 41.9955 89.5818 42.2115Z" fill="#2B0034"/>
<path d="M3.8252 126.992C3.8252 131.693 5.76829 132.521 9.86869 132.673C11.1309 132.723 54.6824 132.629 56.9162 132.673C58.7828 132.709 57.8877 131.341 55.9523 131.341C54.0168 131.341 13.2194 131.413 10.0523 131.341C6.3956 131.197 5.4623 130.707 5.4623 127.021C5.4623 122.348 6.22729 123.284 18.8039 114.457C21.9174 112.297 23.9523 111.015 27.3795 110.943C29.621 110.878 41.1036 111.015 42.3735 110.943C43.6434 110.871 43.1385 109.539 41.0271 109.539C25.7271 109.539 24.8856 109.093 21.1371 111.159C21.2825 103.959 28.068 74.2375 29.6363 67.9951C31.2045 61.7527 34.1115 61.3999 38.1354 61.3999C39.6654 61.3999 41.5703 61.3279 43.7276 61.3279C45.8849 61.3279 44.4008 59.9959 43.1309 59.9959C34.647 59.9959 29.6516 59.7439 28.221 67.6423C27.7008 70.3783 18.8957 105.399 19.806 112.002C5.24044 122.182 3.8252 121.311 3.8252 126.992Z" fill="#2B0034"/>
<path d="M61.2002 58.1381C62.3936 58.0661 64.5586 57.3677 64.0307 56.1725C63.8854 55.8269 63.0668 55.5461 62.3936 55.6109C63.2122 54.8405 62.6155 53.0837 61.2002 53.5805C60.9245 53.6539 60.6819 53.81 60.509 54.0251C60.3362 54.2402 60.2427 54.5025 60.2427 54.7721C60.2427 55.0417 60.3362 55.304 60.509 55.5191C60.6819 55.7342 60.9245 55.8903 61.2002 55.9637C59.9762 56.4533 59.5249 58.2101 61.2002 58.1381Z" fill="#2B0034"/>
<path d="M36.0397 113.513C37.9751 113.513 37.4549 112.037 32.0846 112.253C30.2945 112.318 30.5546 113.513 31.4191 113.513H36.0397Z" fill="#2B0034"/>
<path d="M48.272 69.1971C48.6392 70.4571 49.7637 69.2619 49.3889 67.8579C43.7967 46.8051 41.3105 48.8355 56.5493 44.7171C58.0793 44.2995 56.8476 43.2771 55.2029 43.6659C52.6904 44.2185 50.2233 44.9404 47.8206 45.8259C41.7771 48.1947 42.4503 49.4331 48.272 69.1971Z" fill="#2B0034"/>
<path d="M100.17 88.8099C97.4847 83.1219 95.7711 80.7387 88.6107 84.1083C86.6752 79.4067 81.5268 69.7083 74.3664 66.0003C72.5074 65.0139 70.3425 67.2603 69.5928 67.9659C67.6573 69.7227 69.2256 70.5651 71.314 70.5651C69.4474 72.1779 64.8957 74.4891 68.0322 75.8931C72.4309 77.8587 73.9915 79.1259 78.1684 88.8531C72.5074 91.4451 65.6454 94.5339 59.7549 97.2051C56.5495 92.1651 50.2842 77.6931 62.7384 75.6555C64.0771 75.4467 64.8957 74.0427 65.5689 73.1283C67.0606 71.0259 67.4355 70.1835 66.9841 69.6939C66.5328 69.2043 65.5689 69.1971 63.7788 69.6939C64.8268 68.3547 69.9676 64.5675 65.3088 64.3587C61.9504 64.1715 58.8828 65.5755 65.7525 62.7459C67.0989 62.1843 66.6399 61.3059 64.8651 61.8315C61.4838 62.8251 60.0915 63.6531 59.5101 64.9203C49.2208 67.8003 44.2101 75.0003 43.4451 81.0627C42.6801 86.6067 44.4166 93.4107 49.4121 101.943C44.1871 104.398 42.267 105.658 44.8603 110.993C50.8273 123.067 56.1976 136.258 73.6473 136.258C94.1952 136.258 113.695 116.652 106.007 100.884C104.806 98.4219 102.182 93.0939 100.17 88.8099ZM68.5524 74.6331C69.3709 73.3659 73.326 71.4723 73.1424 70.2123C73.0735 69.3699 71.4288 69.4419 70.3119 69.1611C70.4572 68.8083 72.6069 66.7491 73.5172 67.1235C80.1574 69.9171 85.4512 80.3859 87.2413 84.6699C85.3747 85.5123 82.6513 86.7723 79.5913 88.1763C75.4144 78.7011 73.1041 76.4547 68.5524 74.6331ZM45.0592 81.3003C46.4821 71.4723 56.8479 65.7915 64.5285 65.6475C66.0585 65.6475 65.194 66.2739 64.8957 66.5619C61.392 69.9603 60.757 71.6019 65.7219 70.7739C64.9429 72.1119 63.9051 73.3011 62.6619 74.2803C48.4941 77.0163 54.4611 91.4739 58.485 97.7955C55.6545 99.1275 53.0382 100.251 51.0262 101.23C46.0308 92.9571 44.2407 86.9811 45.0592 81.3003ZM90.0259 130.57C74.3664 138.922 61.7668 133.867 56.0217 127.272C52.2961 122.952 49.0143 115.479 46.4056 110.352C44.7609 107.199 45.0592 105.931 47.599 104.463C49.4656 103.404 63.3351 97.1619 74.5194 92.0355C95.0902 82.6755 94.7612 81.1347 98.8234 89.3715C100.843 93.3027 103.895 99.2643 105.012 101.719C108.149 108.667 105.464 122.283 90.0259 130.57Z" fill="#2B0034"/>
<path d="M133.501 112.037C134.396 105.442 125.675 70.4933 125.086 67.6853C123.892 61.5077 120.159 60.3125 116.212 60.0317C113.555 59.858 110.889 59.858 108.233 60.0317C106.443 60.2477 105.318 61.4717 107.185 61.4717C116.365 61.4717 121.567 59.7221 123.594 68.0021C125.124 74.1725 132.17 104.146 131.94 111.094C130.139 109.953 127.986 109.408 125.82 109.546C123.586 109.546 111.798 109.546 110.52 109.618C109.242 109.69 108.225 110.95 110.145 110.95C129.094 110.95 128.39 110.266 134.38 114.55C147.095 123.464 147.73 122.47 147.73 127.114C147.73 130.836 146.758 131.326 143.101 131.434C139.973 131.506 99.4046 131.434 97.2014 131.434C94.9982 131.434 93.4758 132.91 95.6714 132.91C95.6714 132.91 141.908 132.91 143.101 132.838C147.209 132.701 149.053 131.787 149.145 127.157C149.275 121.455 148.41 122.556 133.501 112.037Z" fill="#2B0034"/>
<path d="M109.862 19.8915C112.471 17.0835 117.168 11.3307 117.994 9.81152C118.958 7.98992 117.841 7.42832 117.168 8.37152C116.495 9.31472 109.396 18.6243 107.927 20.0283C107.475 20.3811 108.072 21.8571 109.862 19.8915Z" fill="#2B0034"/>
<path d="M29.6293 115.054C28.9553 115.046 28.2812 115.07 27.6097 115.126C25.8961 115.198 25.1541 116.113 26.1945 116.321C27.0842 116.437 27.9823 116.483 28.8796 116.458C28.5813 117.301 28.5048 117.725 28.8796 117.725C29.2545 117.725 29.9965 117.517 30.5244 116.458L40.8901 116.53C41.4103 117.581 41.4868 117.862 42.007 117.862C42.5272 117.862 42.8256 117.517 42.5272 116.53C44.1643 116.53 44.3173 116.321 44.5392 116.041C44.914 115.688 44.2408 115.126 41.9305 115.126C41.7852 114.781 41.5557 114.284 41.2573 113.585C40.7371 112.39 39.0235 111.973 39.5437 113.377C39.9186 114.219 40.3087 115.126 40.3087 115.126C37.6924 115.126 32.1768 115.054 31.2817 115.054C31.4883 113.938 30.6697 113.722 29.6293 115.054Z" fill="#2B0034"/>
<path d="M72.5072 24.3845C62.4398 20.5901 51.921 30.4901 56.2509 39.9653C57.2053 42.0429 58.7888 43.8099 60.8038 45.0455C62.8187 46.2812 65.1757 46.9308 67.5806 46.9133C82.5669 46.8773 84.9155 29.0141 72.5072 24.3845ZM78.0993 39.6773C74.3661 47.2517 60.5732 47.3237 57.6662 39.3965C54.6062 31.1813 61.1699 25.1477 68.4756 24.9965C75.7814 24.8453 81.2282 33.2981 78.0993 39.6773Z" fill="#2B0034"/>
<path d="M24.1818 113.722C23.4168 113.441 20.3033 116.041 19.5918 117.322C18.8804 118.604 19.8137 119.569 21.6803 119.641C29.0625 120.13 42.4806 120.065 45.4641 119.921C48.4476 119.777 47.7056 118.726 46.6575 118.726C44.1942 118.798 28.2287 118.784 22.4223 118.309C21.7491 118.251 20.7087 118.237 21.5273 117.322C23.5851 114.845 24.855 113.938 24.1818 113.722Z" fill="#2B0034"/>
<path d="M68.33 36.6604C73.8457 35.4724 71.5354 27.754 65.9432 29.2948C61.2002 30.6268 62.7302 37.8556 68.33 36.6604Z" fill="#2B0034"/>
<path d="M58.3314 52.3852C54.0857 54.07 56.1741 60.5932 60.351 60.2476C63.8547 59.9668 79.476 56.1076 83.018 54.5596C87.7916 52.594 88.3118 51.0532 88.0134 49.3684C87.6386 47.5396 86.1468 45.8548 80.5547 46.8412C76.6761 47.4748 61.3149 51.262 58.3314 52.3852ZM86.3763 51.0532C84.9534 54.2788 63.4799 58.6996 60.7182 59.0524C57.1457 59.47 56.2506 54.7324 58.7063 53.6452C61.5444 52.3132 78.5427 48.2452 83.0945 47.6836C85.4813 47.4028 87.2714 48.9436 86.3763 51.0532Z" fill="#2B0034"/>
<path d="M88.4653 116.602C87.6391 115.688 84.6938 113.002 82.6436 111.13C82.3926 110.881 82.2132 110.576 82.1222 110.243C82.0312 109.911 82.0316 109.562 82.1234 109.229C82.4176 108.311 82.5097 107.345 82.3939 106.392C82.2782 105.439 81.9571 104.518 81.4502 103.685C76.975 97.299 65.7907 103.621 70.0441 110.353C71.9183 113.233 74.3281 112.318 74.5882 114.5C75.0931 118.647 74.3663 126.286 79.3618 124.529C81.4502 123.809 87.5702 120.929 88.4653 120.253C88.9275 119.937 89.2549 119.477 89.3884 118.954C89.5219 118.432 89.4528 117.882 89.1935 117.403C89.0216 117.085 88.772 116.811 88.4653 116.602Z" fill="#2B0034"/>
<path d="M68.4751 37.7838C65.4151 38.6262 63.3726 40.743 63.778 42.3486C64.1835 43.9542 70.7166 44.451 73.9219 41.9958C78.03 38.8422 74.5875 36.171 68.4751 37.7838Z" fill="#2B0034"/>
<path d="M124.405 117.163C125.17 117.091 124.925 115.27 123.51 113.16C122.462 111.547 121.406 112.188 121.797 113.023C123.51 116.717 123.732 117.235 124.405 117.163Z" fill="#2B0034"/>
<path d="M62.8832 28.5893C53.489 34.9109 63.8547 48.7493 73.3943 41.3693C82.5666 34.2053 71.5353 22.9085 62.8832 28.5893Z" fill="#9B7EBD"/>
<path d="M100.613 74.3525C99.6608 74.0494 98.6216 74.0983 97.7061 74.4893C98.5247 73.7189 100.468 71.1197 98.3028 71.5445C97.1859 71.7533 97.2624 73.2293 96.9641 74.1437C96.5892 73.2293 96.4362 71.5589 95.6177 71.5445C93.9041 71.5085 94.8527 73.6469 96.1455 74.4893C94.2789 73.7189 92.244 74.4389 93.3839 75.5477C93.7511 75.9005 95.2505 75.6125 96.2144 75.4037C94.5773 76.3901 93.9194 78.8453 95.6942 78.3485C96.2144 78.2117 96.7346 76.6709 97.0329 75.8285C97.3313 76.6709 97.8591 78.2117 98.3793 78.3485C99.9476 78.7733 99.5727 76.8077 97.8591 75.4037C99.3509 75.9653 102.334 75.6773 100.613 74.3525Z" fill="#9B7EBD"/>
<path d="M87.9754 65.9284C87.3593 65.6189 86.6567 65.4957 85.9635 65.5756C86.7285 65.23 88.5722 63.826 86.8586 63.682C86.3384 63.6172 85.8182 64.2436 85.3286 65.23C85.2521 64.5964 85.4051 63.3364 84.8084 63.1924C83.6915 62.9116 83.9133 64.3876 84.6554 65.2948C82.3604 63.6892 80.7385 66.2092 84.5865 65.9284C83.3166 66.2812 82.4216 67.966 83.6915 67.822C84.1352 67.822 84.7318 67.102 85.1067 66.382C85.1832 67.0084 85.252 68.1388 85.6269 68.3476C86.5831 68.8588 86.6749 67.5052 85.7799 66.238C87.0421 66.9796 88.8858 67.21 87.9754 65.9284Z" fill="#9B7EBD"/>
<path d="M68.1768 81.3726C67.3583 80.9478 66.4632 81.999 65.5682 82.4238C66.0884 81.4374 66.9069 79.335 65.048 79.6158C64.2294 79.7526 64.6731 81.5094 64.6731 82.4238C63.9999 81.7038 63.2579 80.2638 62.4393 80.5302C60.4197 81.3726 62.883 82.5606 63.9693 82.9854C62.6229 83.1222 59.8077 83.8638 61.7279 84.879C62.6306 85.3542 63.518 84.3174 64.3365 83.8278C63.3726 85.3038 63.3726 87.759 65.0097 86.4918C65.4534 86.1462 65.3081 84.807 65.3081 83.9646C65.9048 84.6846 66.5703 85.9878 67.473 85.7934C69.2555 85.4046 67.1747 83.8278 65.943 83.3382C67.0599 83.1942 69.7451 82.215 68.1768 81.3726Z" fill="#9B7EBD"/>
<path d="M72.2087 64.1571C73.471 63.9483 72.2776 62.9691 70.8623 62.9691C71.5355 62.6883 73.0273 61.4931 71.8339 61.4211C71.5355 61.4211 70.9388 61.7019 70.4875 62.5443C70.6405 61.8243 70.564 60.2979 69.5924 60.9315C69.2252 61.2123 69.6689 62.0547 69.9673 62.6883C69.0722 62.0547 68.4373 61.8459 68.1772 61.9683C67.2056 62.3211 68.1772 63.1635 69.5924 63.1635C68.399 63.4443 67.5805 64.6035 68.6285 64.7043C68.9957 64.7763 69.5924 63.9843 70.0438 63.5883C69.8219 64.9203 70.1891 65.8995 70.9388 65.2011C71.1607 64.9851 70.7858 64.0059 70.6405 63.4443C71.1454 63.7539 71.8339 64.2435 72.2087 64.1571Z" fill="#9B7EBD"/>
<path d="M95.6939 28.3808C93.5289 28.1 91.3716 32.1752 91.1421 33.3632C90.5934 35.7305 90.9939 38.2051 92.2667 40.3112C92.8022 41.1464 93.9803 40.1024 93.5289 39.332C91.9989 36.8048 91.8918 32.8016 94.577 30.3464C94.424 31.8944 95.5485 33.1544 96.5889 32.8736C96.9638 32.7368 96.9638 32.384 96.7343 32.1032C95.495 30.5408 96.5277 28.3808 95.6939 28.3808Z" fill="#9B7EBD"/>
<path d="M106.282 24.8021C107.926 24.9461 110.107 23.3621 110.611 21.7853C111.728 18.1349 106.35 17.4149 105.463 20.9429C105.307 21.8231 105.233 22.7145 105.241 23.6069C103.895 26.4149 102.105 28.0349 102.181 29.8565C102.358 30.529 102.738 31.139 103.275 31.6133C106.48 34.9829 105.96 42.8381 99.1747 42.3485C98.9777 42.334 98.7824 42.3919 98.6298 42.51C98.4772 42.6282 98.3791 42.7973 98.3562 42.9821C98.4327 43.8245 99.2513 43.8245 99.8862 43.8245C106.817 43.7525 108.538 35.2565 104.43 30.7709C102.793 28.9349 103.757 29.5469 106.282 24.8021ZM108.148 19.8917C110.535 20.0573 108.523 23.1893 106.733 23.2613C106.656 22.2029 106.809 19.7981 108.148 19.8917Z" fill="#9B7EBD"/>
<path d="M80.5547 62.6307C80.111 62.2779 79.3613 62.8395 78.7646 63.0555C79.2159 62.4939 79.8891 60.8955 78.7646 61.2267C78.099 61.4355 78.3209 62.4219 78.2444 62.9835C77.8695 62.4939 77.4794 61.5075 77.051 61.5435C75.6357 61.6803 77.051 62.7387 77.7242 63.1563C76.9056 63.0843 75.4292 63.6459 76.0794 64.1355C76.5308 64.4235 77.2728 63.9267 77.8695 63.7179C77.3493 64.3515 76.7526 65.6835 77.8695 65.5395C78.2444 65.4747 78.3209 64.4235 78.3974 63.8619C78.6957 64.3515 79.2159 65.2587 79.5908 65.2587C80.4782 65.1939 80.0345 64.2075 78.9176 63.5811C79.6596 63.6819 81.4497 63.3363 80.5547 62.6307Z" fill="#9B7EBD"/>
<path d="M92.8639 87.1252C91.594 84.2452 88.7559 84.4612 84.8085 86.5636C83.6151 83.266 78.8415 73.1572 72.7291 70.5652C72.2089 70.2844 71.5357 70.63 71.0844 70.9828C70.4877 71.4724 67.0987 75.1948 67.0605 76.9516C67.0814 77.1994 67.1766 77.4365 67.335 77.6353C67.4935 77.8342 67.7087 77.9866 67.9555 78.0748C71.4898 79.63 73.3947 81.2284 77.1355 90.142C72.0636 92.5324 65.6605 95.4772 60.3591 97.9324C56.6259 91.8268 52.9768 80.8108 63.5644 78.7732C63.7312 78.7547 63.8914 78.7011 64.0331 78.6164C64.1748 78.5316 64.2944 78.4179 64.383 78.2836C65.7982 76.4548 66.1731 74.7412 63.8628 74.6836C63.1896 74.6836 64.2147 73.6036 66.3949 71.314C66.8539 70.8316 67.29 70.1188 65.7982 70.1188C55.1341 69.91 48.7234 78.6796 47.9814 84.1588C47.3847 88.6444 48.4251 93.6268 52.9768 101.489C49.0218 103.318 46.4896 104.369 48.8764 108.79C50.5135 112.088 53.7954 119.741 57.0772 123.528C62.371 129.634 74.152 135.768 87.5013 128.511C102.182 120.605 103.895 106.076 92.8639 87.1252Z" fill="#9B7EBD"/>
<path d="M99.2746 41.6501C98.6014 39.6125 97.8593 37.7189 96.9796 36.6605C94.7381 34.0829 92.795 35.7749 94.2179 36.3149C95.6408 36.8549 96.6812 38.4173 97.8746 41.9309C99.068 45.4445 101.822 55.3301 102.717 58.8437C103.91 63.1637 103.612 65.0141 99.5882 66.4181C97.7981 67.0517 87.287 70.0181 83.2555 70.8461C81.7637 71.1197 82.4905 72.4589 84.6019 71.9621C103.727 67.4693 106.42 66.9221 104.362 59.0021C103.375 55.2653 101.746 49.5053 99.2746 41.6501Z" fill="#2B0034"/>
<path d="M33.209 68.1747C34.6778 64.0131 35.504 64.8627 43.2687 64.5747C45.3572 64.5027 45.732 63.2787 44.0337 63.3147C35.6187 63.4875 33.5915 62.4795 31.7325 67.7355C30.9063 69.9819 24.947 97.7019 24.4191 101.072C23.8913 104.441 25.842 106.054 29.4146 106.054H41.6546C43.2917 106.054 43.0698 104.65 40.1628 104.65H29.3304C26.6453 104.65 25.3754 103.808 25.7502 101.28C26.4923 97.9324 32.3828 70.3491 33.209 68.1747Z" fill="#2B0034"/>
<path d="M13.9692 125.235C22.6137 125.588 44.837 125.955 46.9254 125.869C51.1023 125.797 50.7504 124.429 48.3407 124.393C44.9135 124.321 16.7232 123.968 12.3857 123.831C10.7103 123.759 10.8327 125.091 13.9692 125.235Z" fill="#2B0034"/>
<path d="M86.3004 56.2369C84.3573 56.6617 75.4144 58.9009 73.6243 59.4625C71.8342 60.0241 72.2779 61.1473 74.8866 60.5209C85.8643 57.7849 89.6358 56.1361 90.9516 58.9009C91.3264 60.0241 90.8751 61.5001 89.085 62.5009C88.4959 62.7817 88.7866 63.7609 90.133 63.2209C94.2793 61.4281 92.9559 54.9625 86.3004 56.2369Z" fill="#2B0034"/>
<path d="M83.4618 36.3148C82.0466 36.8044 81.8247 38.2804 83.0181 37.9276C84.2115 37.5748 86.0781 37.1572 88.0901 36.7324C89.5589 36.4588 89.8878 34.2988 83.4618 36.3148Z" fill="#2B0034"/>
<path d="M67.8789 55.7548C69.1488 55.8268 70.1739 54.142 71.0154 53.2276C72.8208 54.6676 74.9781 54.8044 75.5595 52.594C76.6305 53.17 78.3135 52.9324 78.4665 51.874C79.5452 52.162 80.7615 51.9316 81.0752 50.9596C83.6915 51.6796 84.9537 48.922 83.0948 49.6276C81.6719 50.182 80.1725 48.6844 79.6599 50.6068C78.5048 50.3692 77.1278 50.3332 77.1278 51.4492C76.3628 51.3124 75.2612 50.8156 74.741 51.1684C74.1443 51.658 74.5191 52.6444 73.7694 52.7812C73.0197 52.918 71.7575 51.5212 70.8624 51.658C69.9674 51.7948 68.8505 54.1204 68.1773 54.2572C67.5041 54.394 67.3205 53.3572 66.5555 53.7892C65.6451 54.2068 66.609 55.6828 67.8789 55.7548Z" fill="#2B0034"/>
<path d="M109.938 116.602C109.487 117.581 110.382 118.042 111.652 116.53C113.182 116.53 119.302 116.458 120.603 116.458C121.903 116.458 120.526 115.09 118.438 115.126C116.349 115.162 114.483 115.198 112.624 115.198C112.86 114.859 113.115 114.532 113.389 114.219C114.665 114.281 115.946 114.232 117.214 114.075C118.705 113.866 118.629 113.023 116.617 112.879C115.899 112.823 115.179 112.802 114.46 112.815C115.225 111.476 114.161 110.986 112.669 112.815C109.831 112.88 109.235 113.657 109.464 113.938C109.694 114.219 111.254 114.219 111.621 114.219C111.39 114.561 111.135 114.888 110.856 115.198C108.959 115.003 107.139 116.307 109.938 116.602Z" fill="#2B0034"/>
<path d="M123.732 106.004C127.389 106.004 129.324 104.391 128.727 101.021C128.131 97.6516 122.24 69.9316 121.422 67.6852C119.387 62.2348 117.642 63.3652 107.774 63.3652C105.984 63.3652 107.476 64.6324 109.488 64.6324C118.277 64.6324 118.713 64.2796 120.075 68.1388C120.901 70.3852 126.792 97.8964 127.312 101.259C127.756 103.786 126.493 104.628 123.732 104.628H111.431C108.669 104.628 108.149 106.068 110.237 106.032C112.326 105.996 119.93 106.004 123.732 106.004Z" fill="#2B0034"/>
<path d="M107.399 118.704C105.762 118.704 105.387 120.044 109.64 120.044C113.894 120.044 130.219 120.252 132.759 118.704C133.799 118.078 132.904 116.602 131.412 115.479C128.429 113.232 128.222 114.55 129.117 115.27C130.012 115.99 132.024 117.372 130.907 117.725C128.054 118.776 113.741 118.776 107.399 118.704Z" fill="#2B0034"/>
<path d="M103.895 124.465C101.96 124.529 103.13 125.653 105.012 125.797C107.399 125.933 137.303 125.588 139.988 125.307C142.673 125.026 142.673 123.867 141.036 123.831L103.895 124.465Z" fill="#2B0034"/>
<path d="M89.5818 42.2115C90.0255 42.4203 92.0375 41.8587 92.4888 42.0675C92.9402 42.2763 93.7587 43.9755 94.2789 43.8243C94.7991 43.6731 94.5008 41.7147 94.7991 41.2971C95.0975 40.8795 96.6657 40.5267 96.4362 39.8571C96.2909 39.5043 94.9521 39.2955 94.7226 39.0147C94.0571 36.9051 93.9041 37.3299 93.009 38.1003C93.1789 38.5337 93.3778 38.9571 93.6057 39.3675C94.1259 40.1379 92.9325 41.1891 92.3358 40.3467C92.033 39.8823 91.7597 39.4015 91.5173 38.9067C90.8441 38.9067 89.8802 38.7699 89.5818 39.0507C89.207 39.4683 90.6987 40.2459 90.6987 40.5915C90.6987 40.9371 89.1305 41.9955 89.5818 42.2115Z" fill="#2B0034"/>
<path d="M3.8252 126.992C3.8252 131.693 5.76829 132.521 9.86869 132.673C11.1309 132.723 54.6824 132.629 56.9162 132.673C58.7828 132.709 57.8877 131.341 55.9523 131.341C54.0168 131.341 13.2194 131.413 10.0523 131.341C6.3956 131.197 5.4623 130.707 5.4623 127.021C5.4623 122.348 6.22729 123.284 18.8039 114.457C21.9174 112.297 23.9523 111.015 27.3795 110.943C29.621 110.878 41.1036 111.015 42.3735 110.943C43.6434 110.871 43.1385 109.539 41.0271 109.539C25.7271 109.539 24.8856 109.093 21.1371 111.159C21.2825 103.959 28.068 74.2375 29.6363 67.9951C31.2045 61.7527 34.1115 61.3999 38.1354 61.3999C39.6654 61.3999 41.5703 61.3279 43.7276 61.3279C45.8849 61.3279 44.4008 59.9959 43.1309 59.9959C34.647 59.9959 29.6516 59.7439 28.221 67.6423C27.7008 70.3783 18.8957 105.399 19.806 112.002C5.24044 122.182 3.8252 121.311 3.8252 126.992Z" fill="#2B0034"/>
<path d="M61.2002 58.1381C62.3936 58.0661 64.5586 57.3677 64.0307 56.1725C63.8854 55.8269 63.0668 55.5461 62.3936 55.6109C63.2122 54.8405 62.6155 53.0837 61.2002 53.5805C60.9245 53.6539 60.6819 53.81 60.509 54.0251C60.3362 54.2402 60.2427 54.5025 60.2427 54.7721C60.2427 55.0417 60.3362 55.304 60.509 55.5191C60.6819 55.7342 60.9245 55.8903 61.2002 55.9637C59.9762 56.4533 59.5249 58.2101 61.2002 58.1381Z" fill="#2B0034"/>
<path d="M36.0397 113.513C37.9751 113.513 37.4549 112.037 32.0846 112.253C30.2945 112.318 30.5546 113.513 31.4191 113.513H36.0397Z" fill="#2B0034"/>
<path d="M48.272 69.1971C48.6392 70.4571 49.7637 69.2619 49.3889 67.8579C43.7967 46.8051 41.3105 48.8355 56.5493 44.7171C58.0793 44.2995 56.8476 43.2771 55.2029 43.6659C52.6904 44.2185 50.2233 44.9404 47.8206 45.8259C41.7771 48.1947 42.4503 49.4331 48.272 69.1971Z" fill="#2B0034"/>
<path d="M100.17 88.8099C97.4847 83.1219 95.7711 80.7387 88.6107 84.1083C86.6752 79.4067 81.5268 69.7083 74.3664 66.0003C72.5074 65.0139 70.3425 67.2603 69.5928 67.9659C67.6573 69.7227 69.2256 70.5651 71.314 70.5651C69.4474 72.1779 64.8957 74.4891 68.0322 75.8931C72.4309 77.8587 73.9915 79.1259 78.1684 88.8531C72.5074 91.4451 65.6454 94.5339 59.7549 97.2051C56.5495 92.1651 50.2842 77.6931 62.7384 75.6555C64.0771 75.4467 64.8957 74.0427 65.5689 73.1283C67.0606 71.0259 67.4355 70.1835 66.9841 69.6939C66.5328 69.2043 65.5689 69.1971 63.7788 69.6939C64.8268 68.3547 69.9676 64.5675 65.3088 64.3587C61.9504 64.1715 58.8828 65.5755 65.7525 62.7459C67.0989 62.1843 66.6399 61.3059 64.8651 61.8315C61.4838 62.8251 60.0915 63.6531 59.5101 64.9203C49.2208 67.8003 44.2101 75.0003 43.4451 81.0627C42.6801 86.6067 44.4166 93.4107 49.4121 101.943C44.1871 104.398 42.267 105.658 44.8603 110.993C50.8273 123.067 56.1976 136.258 73.6473 136.258C94.1952 136.258 113.695 116.652 106.007 100.884C104.806 98.4219 102.182 93.0939 100.17 88.8099ZM68.5524 74.6331C69.3709 73.3659 73.326 71.4723 73.1424 70.2123C73.0735 69.3699 71.4288 69.4419 70.3119 69.1611C70.4572 68.8083 72.6069 66.7491 73.5172 67.1235C80.1574 69.9171 85.4512 80.3859 87.2413 84.6699C85.3747 85.5123 82.6513 86.7723 79.5913 88.1763C75.4144 78.7011 73.1041 76.4547 68.5524 74.6331ZM45.0592 81.3003C46.4821 71.4723 56.8479 65.7915 64.5285 65.6475C66.0585 65.6475 65.194 66.2739 64.8957 66.5619C61.392 69.9603 60.757 71.6019 65.7219 70.7739C64.9429 72.1119 63.9051 73.3011 62.6619 74.2803C48.4941 77.0163 54.4611 91.4739 58.485 97.7955C55.6545 99.1275 53.0382 100.251 51.0262 101.23C46.0308 92.9571 44.2407 86.9811 45.0592 81.3003ZM90.0259 130.57C74.3664 138.922 61.7668 133.867 56.0217 127.272C52.2961 122.952 49.0143 115.479 46.4056 110.352C44.7609 107.199 45.0592 105.931 47.599 104.463C49.4656 103.404 63.3351 97.1619 74.5194 92.0355C95.0902 82.6755 94.7612 81.1347 98.8234 89.3715C100.843 93.3027 103.895 99.2643 105.012 101.719C108.149 108.667 105.464 122.283 90.0259 130.57Z" fill="#2B0034"/>
<path d="M133.501 112.037C134.396 105.442 125.675 70.4933 125.086 67.6853C123.892 61.5077 120.159 60.3125 116.212 60.0317C113.555 59.858 110.889 59.858 108.233 60.0317C106.443 60.2477 105.318 61.4717 107.185 61.4717C116.365 61.4717 121.567 59.7221 123.594 68.0021C125.124 74.1725 132.17 104.146 131.94 111.094C130.139 109.953 127.986 109.408 125.82 109.546C123.586 109.546 111.798 109.546 110.52 109.618C109.242 109.69 108.225 110.95 110.145 110.95C129.094 110.95 128.39 110.266 134.38 114.55C147.095 123.464 147.73 122.47 147.73 127.114C147.73 130.836 146.758 131.326 143.101 131.434C139.973 131.506 99.4046 131.434 97.2014 131.434C94.9982 131.434 93.4758 132.91 95.6714 132.91C95.6714 132.91 141.908 132.91 143.101 132.838C147.209 132.701 149.053 131.787 149.145 127.157C149.275 121.455 148.41 122.556 133.501 112.037Z" fill="#2B0034"/>
<path d="M109.862 19.8915C112.471 17.0835 117.168 11.3307 117.994 9.81152C118.958 7.98992 117.841 7.42832 117.168 8.37152C116.495 9.31472 109.396 18.6243 107.927 20.0283C107.475 20.3811 108.072 21.8571 109.862 19.8915Z" fill="#2B0034"/>
<path d="M29.6293 115.054C28.9553 115.046 28.2812 115.07 27.6097 115.126C25.8961 115.198 25.1541 116.113 26.1945 116.321C27.0842 116.437 27.9823 116.483 28.8796 116.458C28.5813 117.301 28.5048 117.725 28.8796 117.725C29.2545 117.725 29.9965 117.517 30.5244 116.458L40.8901 116.53C41.4103 117.581 41.4868 117.862 42.007 117.862C42.5272 117.862 42.8256 117.517 42.5272 116.53C44.1643 116.53 44.3173 116.321 44.5392 116.041C44.914 115.688 44.2408 115.126 41.9305 115.126C41.7852 114.781 41.5557 114.284 41.2573 113.585C40.7371 112.39 39.0235 111.973 39.5437 113.377C39.9186 114.219 40.3087 115.126 40.3087 115.126C37.6924 115.126 32.1768 115.054 31.2817 115.054C31.4883 113.938 30.6697 113.722 29.6293 115.054Z" fill="#2B0034"/>
<path d="M72.5072 24.3845C62.4398 20.5901 51.921 30.4901 56.2509 39.9653C57.2053 42.0429 58.7888 43.8099 60.8038 45.0455C62.8187 46.2812 65.1757 46.9308 67.5806 46.9133C82.5669 46.8773 84.9155 29.0141 72.5072 24.3845ZM78.0993 39.6773C74.3661 47.2517 60.5732 47.3237 57.6662 39.3965C54.6062 31.1813 61.1699 25.1477 68.4756 24.9965C75.7814 24.8453 81.2282 33.2981 78.0993 39.6773Z" fill="#2B0034"/>
<path d="M24.1818 113.722C23.4168 113.441 20.3033 116.041 19.5918 117.322C18.8804 118.604 19.8137 119.569 21.6803 119.641C29.0625 120.13 42.4806 120.065 45.4641 119.921C48.4476 119.777 47.7056 118.726 46.6575 118.726C44.1942 118.798 28.2287 118.784 22.4223 118.309C21.7491 118.251 20.7087 118.237 21.5273 117.322C23.5851 114.845 24.855 113.938 24.1818 113.722Z" fill="#2B0034"/>
<path d="M68.33 36.6604C73.8457 35.4724 71.5354 27.754 65.9432 29.2948C61.2002 30.6268 62.7302 37.8556 68.33 36.6604Z" fill="#2B0034"/>
<path d="M58.3314 52.3852C54.0857 54.07 56.1741 60.5932 60.351 60.2476C63.8547 59.9668 79.476 56.1076 83.018 54.5596C87.7916 52.594 88.3118 51.0532 88.0134 49.3684C87.6386 47.5396 86.1468 45.8548 80.5547 46.8412C76.6761 47.4748 61.3149 51.262 58.3314 52.3852ZM86.3763 51.0532C84.9534 54.2788 63.4799 58.6996 60.7182 59.0524C57.1457 59.47 56.2506 54.7324 58.7063 53.6452C61.5444 52.3132 78.5427 48.2452 83.0945 47.6836C85.4813 47.4028 87.2714 48.9436 86.3763 51.0532Z" fill="#2B0034"/>
<path d="M88.4653 116.602C87.6391 115.688 84.6938 113.002 82.6436 111.13C82.3926 110.881 82.2132 110.576 82.1222 110.243C82.0312 109.911 82.0316 109.562 82.1234 109.229C82.4176 108.311 82.5097 107.345 82.3939 106.392C82.2782 105.439 81.9571 104.518 81.4502 103.685C76.975 97.299 65.7907 103.621 70.0441 110.353C71.9183 113.233 74.3281 112.318 74.5882 114.5C75.0931 118.647 74.3663 126.286 79.3618 124.529C81.4502 123.809 87.5702 120.929 88.4653 120.253C88.9275 119.937 89.2549 119.477 89.3884 118.954C89.5219 118.432 89.4528 117.882 89.1935 117.403C89.0216 117.085 88.772 116.811 88.4653 116.602Z" fill="#2B0034"/>
<path d="M68.4751 37.7838C65.4151 38.6262 63.3726 40.743 63.778 42.3486C64.1835 43.9542 70.7166 44.451 73.9219 41.9958C78.03 38.8422 74.5875 36.171 68.4751 37.7838Z" fill="#2B0034"/>
<path d="M124.405 117.163C125.17 117.091 124.925 115.27 123.51 113.16C122.462 111.547 121.406 112.188 121.797 113.023C123.51 116.717 123.732 117.235 124.405 117.163Z" fill="#2B0034"/>
</svg>
