<svg width="30" height="30" viewBox="0 0 30 30" fill="none" xmlns="http://www.w3.org/2000/svg">
<path d="M10 15C10 17.7614 12.2386 20 15 20C17.7614 20 20 17.7614 20 15C20 12.2386 17.7614 10 15 10C12.2386 10 10 12.2386 10 15Z" stroke="#5D5D5D" stroke-width="2" stroke-linecap="round" stroke-linejoin="round"/>
<path d="M20 20L13.75 20C12.7555 20 11.8017 20.3951 11.0984 21.0984C10.3951 21.8016 10 22.7555 10 23.75C10 24.7446 10.3951 25.6984 11.0984 26.4017C11.8017 27.1049 12.7555 27.5 13.75 27.5H15C17.8213 27.4998 20.5594 26.5453 22.7694 24.7916C24.9793 23.0379 26.531 20.5882 27.1722 17.8408C27.8133 15.0934 27.5062 12.2099 26.3008 9.6592C25.0954 7.10846 23.0626 5.04051 20.5329 3.79158C18.0032 2.54266 15.1254 2.18622 12.3674 2.78022C9.60943 3.37422 7.1335 4.88373 5.34221 7.0633C3.55092 9.24287 2.54961 11.9643 2.5011 14.7851C2.4526 17.6059 3.35974 20.3601 5.07504 22.6" stroke="#5D5D5D" stroke-width="2" stroke-linecap="round" stroke-linejoin="round"/>
</svg>
