<svg width="467" height="700" viewBox="0 0 467 700" fill="none" xmlns="http://www.w3.org/2000/svg">
<path d="M160.609 174.339C160.609 174.339 160.606 385.336 160.609 455.669C160.611 499.636 187.87 543.582 233.333 543.582C278.797 543.582 306.06 499.636 306.06 455.669C306.06 385.336 306.06 209.505 306.06 139.172C306.06 68.8398 231.46 29.2051 160.609 33.6738C95.2864 37.7938 33.3394 68.8398 33.3394 139.172C33.3394 209.505 33.3257 350.169 33.3394 455.669C33.3554 577.926 106.912 666.666 233.327 666.666C359.743 666.666 433.317 561.166 433.33 455.669C433.34 350.169 433.33 174.339 433.33 174.339" stroke="#7F55B1" stroke-width="66.6667" stroke-linecap="round" stroke-linejoin="round"/>
</svg>
